<svg width="32" height="32" viewBox="0 0 32 32" fill="none" xmlns="http://www.w3.org/2000/svg">
<path fill-rule="evenodd" clip-rule="evenodd" d="M16 0C24.8352 0 32 7.1648 32 16C32 24.8352 24.8352 32 16 32C7.1648 32 0 24.8352 0 16C0 7.1648 7.1648 0 16 0Z" fill="#0055D5"/>
<path fill-rule="evenodd" clip-rule="evenodd" d="M8.70406 10.5856C8.70406 10.5856 6.98247 9.2096 6.86407 12.608C6.74567 15.2416 6.74887 20.3552 7.96806 22.7712C8.48326 23.68 9.17126 23.4016 10.4513 22.496C11.5649 21.6736 15.5937 17.9616 17.2992 16.3328C19.0048 14.704 22.464 10.032 23.184 13.2064C23.4688 14.5408 23.8208 15.6736 23.552 18.6336C23.4688 19.5456 23.0784 20.2368 21.2992 19.0016C19.9552 18.1376 18.6784 17.2096 18.6784 17.2096C18.6784 17.2096 18.432 16.768 17.8496 17.4848C17.392 18.0576 17.1616 18.1984 17.8944 18.6336C18.6304 19.0688 22.352 21.6352 23.7792 22.0352C24.9568 22.3776 25.6288 22.3712 25.664 20.0576C25.6576 18.2208 25.552 12.9632 24.8832 10.7232C24.3776 9.328 23.6352 8.6944 22.032 10.2624C20.4288 11.8304 15.3729 16.7328 12.6081 18.9536C10.7745 20.3296 9.99046 21.5712 9.29926 19.2768C8.81286 17.5392 8.18246 12.1312 10.1729 13.1616C11.4177 13.7568 12.0385 13.7536 11.5521 14.128C11.0657 14.4992 9.66726 15.7824 9.66726 15.7824C9.66726 15.7824 9.23526 16.1312 9.43686 16.8864C9.63846 17.4144 9.63846 17.6768 10.7233 16.656C11.8081 15.6352 12.6081 14.864 12.6081 14.864C12.6081 14.864 12.7809 14.592 13.2961 15.0944C13.8113 15.5968 13.8945 15.7376 13.8945 15.7376C13.8945 15.7376 14.0321 16.112 14.5825 15.4624C15.1361 14.8128 15.4913 14.416 14.4449 13.808C13.4017 13.1936 8.70406 10.5856 8.70406 10.5856Z" fill="white"/>
</svg>
