<svg width="140" height="140" viewBox="0 0 140 140" fill="none" xmlns="http://www.w3.org/2000/svg">
<g clip-path="url(#clip0_705_177)">
<path d="M140 70C140 31.3401 108.66 0 70 0C31.3401 0 0 31.3401 0 70C0 108.66 31.3401 140 70 140C108.66 140 140 108.66 140 70Z" fill="url(#paint0_radial_705_177)"/>
<path d="M117.601 48.1495C117.308 49.8631 116.965 50.694 116.563 51.6556L116.562 51.6577C116.129 52.7002 115.637 53.8832 115.192 56.2304C115.014 57.1698 114.926 57.859 114.849 58.4665L114.844 58.504L114.839 58.5394C114.715 59.5125 114.632 60.1678 114.237 61.334C113.916 62.2865 113.38 63.8757 112.088 65.5876C111.045 66.9729 109.298 69.2913 106.968 69.5695C106.766 69.5829 106.342 69.6042 106.17 69.5161C99.5582 66.1398 93.8776 63.6451 91.9114 63.0852C89.624 62.4374 89.9169 57.451 90.1757 53.0518C90.2919 51.0856 90.4017 49.2264 90.3093 47.6344C89.9882 42.0806 89.0046 36.0016 84.1681 33.0381C81.2806 31.2694 77.5557 30.7507 73.9966 30.7433C74.6563 30.4295 75.3919 30.0031 76.1933 29.5365L76.2178 29.5224C78.3134 28.3088 80.9146 26.8025 83.4994 26.5373C84.3448 26.454 85.1755 26.3561 85.9944 26.2655C91.2051 25.6754 95.7068 25.1685 100.455 26.7944C102.608 27.5328 107.023 29.9958 108.163 32.2832C108.965 33.8972 110.319 35.1562 113.021 37.6677C114.428 38.9762 115.354 39.7371 116.032 40.2938L116.064 40.3192C117.016 41.1025 117.204 41.2663 117.487 41.8454C118.363 43.6296 118.044 45.5245 117.601 48.1495V48.1495Z" fill="white"/>
<path d="M93.4144 70.9348C93.7952 71.0647 93.938 71.5273 93.7192 71.8649C93.0316 72.9252 92.2466 74.3525 91.3125 76.0841C90.8578 76.9313 90.4269 77.731 90.0655 78.355C88.7845 80.5546 88.6802 82.4064 88.5988 83.8923C88.511 85.4468 88.4322 86.1605 87.5036 86.7799C86.7368 87.2941 85.9518 87.4652 80.5078 88.2942C79.5581 88.4414 79.1363 88.6253 78.7657 88.7873C78.7062 88.813 78.6472 88.8385 78.5853 88.864C78.208 89.0191 77.8329 88.6941 77.8537 88.2868C77.8926 87.5276 77.917 86.593 77.9203 85.4358V85.1998C77.9487 84.133 77.9038 83.2673 77.8655 82.5692C77.794 81.1794 77.7849 80.5939 78.1555 79.9891C78.6102 79.258 78.9652 79.0348 79.548 78.6651C80.3623 78.1537 81.4786 77.4492 83.131 75.1783C84.0094 73.976 84.2042 73.3236 84.3259 72.76C84.378 72.5267 84.3973 72.4389 85.0735 71.9265C85.788 71.3839 87.9656 69.7343 90.7535 70.2027C91.4913 70.3277 92.4224 70.5965 93.4144 70.9348V70.9348Z" fill="white"/>
<path d="M71.8903 96.0781C71.7714 96.2324 71.6332 96.3038 71.4328 96.3143C70.8637 96.3371 70.4639 96.1971 70.1995 95.8781C69.6377 95.1949 69.7136 93.8215 69.8444 93.0191L72.1464 92.4052C72.3267 93.6238 72.4118 95.3991 71.8903 96.0781V96.0781Z" fill="white"/>
<path d="M72.0761 87.7726C72.0377 88.1083 71.9956 88.4862 71.9975 88.8814C72.0001 89.0288 72.002 89.177 72.0066 89.3215C72.0112 89.6976 72.0258 90.295 71.9737 90.5669C71.2545 90.8285 70.6405 90.8285 69.8336 90.8148C69.8217 90.5814 69.8363 90.2338 69.8455 89.9987C69.85 89.8174 69.8601 89.6372 69.8619 89.4652C69.8647 89.2749 69.8619 89.0864 69.8619 88.8989C69.8592 88.456 69.8528 87.7305 69.9617 87.5164C70.1785 87.4852 70.4 87.4376 70.6378 87.3828C71.1136 87.2803 71.7348 87.1494 72.1301 87.2089C72.1237 87.3627 72.1 87.5913 72.0761 87.7726Z" fill="white"/>
<path d="M67.8169 95.3686C67.7053 96.5486 67.3411 98.0076 66.2341 98.2295C65.7364 98.3314 65.4957 98.1819 65.3438 98.0391C64.5963 97.3467 64.4773 95.2543 64.5816 93.757C65.0794 93.7661 65.7318 93.6545 66.5049 93.5045C66.9761 93.4111 67.4455 93.3068 67.8188 93.2208C67.8618 93.7752 67.8929 94.5658 67.8169 95.3686V95.3686Z" fill="white"/>
<path d="M67.2943 91.1336L64.7974 92.0092C64.9236 91.0403 65.0929 89.6761 65.1524 88.7693C65.1954 88.1316 65.3693 87.9358 65.4186 87.8937C65.4351 87.8791 65.469 87.849 65.5614 87.849C65.576 87.849 65.5897 87.8516 65.6062 87.8516L65.6583 87.859L67.2367 87.7729C67.3035 88.515 67.3035 90.1436 67.2943 91.1336V91.1336Z" fill="white"/>
<path d="M63.2591 90.3569C63.1183 90.733 62.9517 91.7971 62.8474 92.5464L59.7192 92.4512C59.8958 91.4823 60.1401 90.4969 60.4091 89.711C60.6809 88.9305 60.9736 88.3449 61.2427 88.1802C61.5565 87.9917 62.2472 87.9496 62.6709 88.3111C63.359 88.8975 63.5492 89.5691 63.2591 90.3569V90.3569Z" fill="white"/>
<path d="M62.0918 99.9314C61.8493 100.263 61.5802 100.431 61.2463 100.467C60.9059 100.505 60.6416 100.429 60.4301 100.23C59.4475 99.3238 59.528 96.3533 59.5637 94.9248C60.8611 94.6292 62.261 94.3776 62.9253 94.3392C63.025 95.5352 63.0534 98.6219 62.0918 99.9314Z" fill="white"/>
<path d="M58.0093 92.3678C57.8565 92.7749 57.7092 93.1602 57.5976 93.5006C57.2334 93.6149 56.1218 93.5151 54.9863 93.2645L55.7667 88.342C57.0495 88.0016 58.5372 87.8919 58.8968 88.2734C59.3707 88.7767 58.4192 91.2946 58.0093 92.3678V92.3678Z" fill="white"/>
<path d="M56.5925 100.684C55.9859 101.431 55.0764 101.781 53.8073 101.768C52.9291 101.752 52.6152 101.419 52.4578 101.17C51.7533 100.053 52.4432 97.4229 53.134 95.7419L57.3711 95.9962C57.4141 96.2924 57.4498 96.6505 57.4663 97.0419C57.513 98.2371 57.3629 99.7267 56.5925 100.684Z" fill="white"/>
<path d="M91.6082 64.9552C87.7938 63.8746 88.1222 58.297 88.4397 52.9061C88.5522 50.9984 88.6583 49.195 88.5715 47.7201C88.2786 42.6741 87.4305 37.1789 83.3718 34.6912C79.0067 32.0216 71.8655 32.6301 67.4595 33.1908C67.4554 33.1912 67.4517 33.1938 67.4476 33.1942C67.4459 33.1943 67.4442 33.1945 67.4425 33.1951C65.8286 33.6841 64.319 34.0012 63.1484 33.9391C60.5491 33.8045 58.5261 32.7102 56.7447 31.7495C55.3549 30.9965 54.1425 30.346 53.0007 30.346C52.9403 30.346 52.8772 30.346 52.8149 30.3488C49.3994 30.5702 47.8294 31.4046 46.4029 32.6773C46.0442 32.9948 45.6069 33.9143 44.175 38.0408C43.4522 40.1259 43.3186 41.2669 43.1841 42.3758C43.0634 43.3887 42.9407 44.4309 42.4019 45.9853C42.0267 47.0576 41.7504 47.9827 41.4823 48.8748C40.7759 51.2445 40.2178 53.1111 38.5407 55.3307C38.3439 55.5933 38.0997 55.9794 37.8178 56.4195C37.4373 57.0188 36.967 57.7635 36.3458 58.6254C35.9075 59.233 34.901 61.5067 34.9559 62.1992C35.0382 63.3018 35.3969 63.9862 35.8068 64.785C36.2149 65.5728 36.6797 66.4648 36.7648 67.6964L36.7785 67.8958C36.9285 69.8492 36.6495 70.8292 32.9338 74.1486C30.5582 76.2742 28.8704 78.3226 27.7321 79.8251C27.6317 79.9577 27.7623 80.1548 27.9281 80.1416C27.9665 80.1361 28.005 80.1333 28.0407 80.1333C28.112 80.1278 28.1834 80.1251 28.2538 80.1251C28.3252 80.1251 28.3966 80.1278 28.467 80.1306C28.5384 80.1333 28.607 80.1389 28.6775 80.1498C29.576 80.2522 30.4519 80.6322 31.0843 81.2871C31.1942 81.4011 31.3651 81.4319 31.512 81.3732C32.1168 81.1215 32.7819 81.1627 33.417 81.2221C34.1725 81.2923 34.9356 81.5128 35.456 81.9815C35.6542 82.16 35.9262 82.2546 36.1875 82.201C36.7789 82.0797 37.3952 82.0999 37.9679 82.3082C38.3927 82.4665 38.7571 82.707 39.0556 83.0083C39.3369 83.2923 39.8131 83.3489 40.1605 83.151C40.2994 83.0718 40.449 83.0037 40.6113 82.9487C41.4182 82.6751 42.3103 82.8307 43.0936 83.1125C43.4797 83.2515 43.884 83.3751 44.2318 83.6074C44.8059 83.9896 45.1793 84.5312 45.4298 85.1413C45.6223 85.6098 46.263 85.7699 46.6741 85.474C47.168 85.1186 47.5757 85.0729 47.9867 85.2552C48.1568 85.332 48.2895 85.4293 48.3912 85.5467C48.6858 85.8862 49.1589 86.2248 49.5963 86.1212C50.8147 85.8331 52.2898 86.0242 53.3721 86.6039C53.7718 86.8142 54.1649 87.1342 54.4521 87.6186C54.4525 87.6191 54.4526 87.6192 54.4528 87.6199C54.4531 87.6218 54.4557 87.6209 54.4559 87.6191L54.4888 87.4037C54.5037 87.3063 54.5729 87.2258 54.667 87.1967L54.9294 87.1153C55.5479 86.9187 58.6999 86.0101 59.9259 87.3011C59.9791 87.3542 60.0715 87.3594 60.1222 87.304C60.2894 87.1213 60.4249 87.0207 60.5116 86.9708C61.3103 86.4868 62.6791 86.4566 63.5904 87.2362C63.7737 87.3901 64.071 87.3342 64.2091 87.1387C64.2942 87.0181 64.3908 86.9121 64.4989 86.8208C64.8192 86.5445 65.2245 86.4127 65.6728 86.4401L67.4048 86.3469C67.8404 86.3229 69.1935 86.231 69.6202 86.1406C69.6525 86.1338 69.6857 86.1278 69.7197 86.1227C69.8999 86.0952 70.114 86.0486 70.3382 86.0019C71.1781 85.8189 72.1306 85.6131 72.9129 85.9744C73.665 86.3221 73.5698 87.1785 73.4793 87.9333C73.4436 88.2398 73.4051 88.5601 73.4079 88.8639C73.4134 89.0057 73.4161 89.1484 73.4188 89.2939C73.4298 89.9447 73.4436 90.5461 73.315 91.008C73.3147 91.009 73.3145 91.0099 73.3145 91.011C73.3145 91.0118 73.3146 91.0126 73.3148 91.0133L73.3941 91.3709C73.4769 91.7225 73.8524 91.9207 74.1598 91.7308C74.7446 91.3693 75.347 90.9132 75.5393 90.6431C75.557 90.6183 75.5706 90.5911 75.5812 90.5624C75.608 90.4897 75.655 90.3393 75.7072 90.0359C75.8142 89.3927 75.934 88.0852 75.9451 85.43C75.9451 85.29 75.9451 85.1894 75.9478 85.1428C75.9698 84.1573 75.9313 83.3668 75.8929 82.6687C75.8216 81.2294 75.7638 80.0968 76.4785 78.9439C77.1738 77.8222 77.8491 77.3976 78.4978 76.9868C79.2526 76.5138 80.1044 75.9767 81.5381 74.0095C82.2418 73.0406 82.3287 72.6499 82.3973 72.3379C82.5529 71.6069 82.7944 71.1668 83.8805 70.346C84.7643 69.6781 87.4543 67.6396 91.083 68.2499C92.2731 68.452 94.202 69.0868 96.106 69.8368C96.1069 69.8371 96.1079 69.8373 96.1088 69.8373C96.1098 69.8373 96.1098 69.8374 96.1107 69.8376C96.1793 69.8577 96.2498 69.8813 96.3145 69.9143C96.344 69.9296 96.3745 69.9451 96.4059 69.9576C98.0517 70.6149 99.6536 71.3461 100.714 71.9414C101.015 72.1111 101.399 72.0099 101.619 71.7427C101.947 71.3455 102.302 71.1032 102.683 70.8749C102.835 70.7815 102.954 70.7111 103.066 70.6151C103.423 70.3117 103.419 69.6758 103.003 69.4616C97.9364 66.859 93.1873 65.4042 91.6082 64.9552V64.9552ZM55.2588 66.1291C54.0794 71.2931 46.0799 76.9685 42.4439 76.9685H42.3725C42.3149 76.9657 42.2518 76.9603 42.184 76.9493C42.1155 76.9383 42.0414 76.9218 41.9626 76.8999C41.9242 76.889 41.883 76.8751 41.8418 76.8642C41.1821 76.6565 40.2681 76.1496 39.5764 75.4689C39.1006 75.0013 38.7256 74.4506 38.6075 73.8568C38.5856 73.7525 38.5636 73.6491 38.5417 73.5448C38.3449 72.6664 38.1006 71.5693 38.8756 69.7742C38.9826 69.5335 39.0778 69.3085 39.1657 69.1035C39.1931 69.035 39.2233 68.9663 39.2507 68.9013C39.3331 68.7073 39.4062 68.529 39.4721 68.3679C39.5819 68.0944 39.6716 67.8619 39.7457 67.6643C39.7758 67.5874 39.8034 67.5133 39.828 67.4456C40.0495 66.8244 40.0769 66.592 40.1071 66.3513C40.1345 66.1629 40.162 65.9323 40.2389 65.6038C40.4658 64.6349 40.5838 63.8142 40.6881 63.0831C40.8739 61.7692 41.0358 60.6338 41.7439 59.5916C41.8647 59.4142 41.9983 59.2522 42.1493 59.1104C42.2015 59.061 42.2509 59.0143 42.3048 58.9676C42.3598 58.921 42.4146 58.8798 42.4686 58.8387C42.6406 58.7179 42.8245 58.6117 43.0239 58.5211C43.0926 58.491 43.1613 58.4608 43.2289 58.4361C43.3689 58.3839 43.5162 58.34 43.6699 58.3015C44.3214 58.1432 45.0899 58.1186 45.9739 58.2302C46.94 58.3071 47.8348 58.49 48.6281 58.7114C49.2905 58.8945 49.8816 59.1086 50.382 59.308C50.4342 59.3272 50.4837 59.3465 50.533 59.3684C50.6291 59.4069 50.7216 59.4452 50.8121 59.4865C50.9494 59.5441 51.0747 59.599 51.1927 59.6502C51.3482 59.7216 51.491 59.7847 51.6173 59.8414L51.7353 59.8963C52.2934 60.1507 52.7729 60.4297 53.1828 60.7226C53.385 60.8708 53.5743 61.0209 53.7437 61.1736C53.8013 61.2231 53.8561 61.2751 53.9074 61.3301C53.9623 61.3822 54.0144 61.4344 54.063 61.4866C55.6 63.1051 55.5241 64.9771 55.2588 66.1291V66.1291ZM58.9662 46.5571L58.8106 47.4932C58.452 49.6031 57.6285 52.4952 54.5909 53.24C51.6685 53.9546 50.9758 54.1074 48.8961 54.2008C48.8495 54.2062 48.8001 54.2062 48.7507 54.2062C47.2318 54.2062 44.3095 53.2483 43.7917 50.8675C43.4604 49.335 44.1366 48.2242 45.25 46.3824C45.4358 46.0787 45.6362 45.753 45.8494 45.3888C47.3216 42.9092 47.9017 41.1141 48.3674 39.6749C48.8212 38.2686 49.199 37.1057 50.1707 36.1422C50.3949 35.9181 50.6493 35.7067 50.9448 35.5045C51.1333 35.3755 51.3309 35.2612 51.5386 35.1541C51.8149 35.0169 52.1049 34.897 52.4087 34.801C53.0848 34.585 53.815 34.4751 54.546 34.4751C55.9633 34.4751 57.3787 34.8832 58.3879 35.693C58.8418 36.0572 59.4878 36.7846 59.8629 38.9301C60.0559 40.0353 59.7275 42.0666 58.9662 46.5571V46.5571ZM80.6369 52.5612C79.5912 54.3563 79.0193 55.3444 78.1162 56.0855C76.3238 57.5577 74.2332 57.9301 72.5121 57.9301C71.2751 57.9301 70.2247 57.7389 69.6062 57.6263C67.8276 57.3006 64.5163 56.6986 63.4138 54.0854C63.1978 53.5685 63.1951 53.24 63.1951 52.8237C63.1951 52.4129 63.1951 51.7212 63.0039 50.0761L62.9929 49.9663C62.9051 49.2215 62.8072 48.3789 63.0203 47.2983L63.0451 47.1693C63.6691 43.9953 63.8383 43.5104 63.9783 43.2368C64.3013 42.6128 65.0671 42.3667 65.6911 42.687C66.2959 43.0016 66.5476 43.7346 66.263 44.3503C66.1998 44.5306 66.0223 45.2067 65.5401 47.6615L65.5155 47.7906C65.3782 48.4831 65.4386 49.0084 65.5182 49.6735L65.5292 49.7861C65.7369 51.573 65.7369 52.3827 65.7369 52.821C65.7369 52.8981 65.7369 52.9831 65.7395 53.0336C65.7405 53.053 65.7499 53.079 65.756 53.0973C65.9413 53.5363 66.3338 53.8804 66.8218 54.1528C67.2414 54.3872 67.693 53.9762 67.6029 53.504C67.0775 50.7518 67.1315 47.593 68.1753 45.6239C68.5252 44.9542 69.1726 43.8592 69.7876 42.8367C69.7893 42.8338 69.7914 42.8312 69.7929 42.8283C69.7943 42.8253 69.7965 42.8228 69.7981 42.8199C69.8604 42.7171 69.9227 42.6151 69.9841 42.5122C70.0362 42.4243 70.0884 42.3402 70.1369 42.2578C70.4078 41.8086 70.6621 41.3959 70.8652 41.0674C70.8926 41.0208 70.9201 40.9741 70.9476 40.9302C70.9668 40.8972 70.9859 40.8671 71.0052 40.8396C71.0491 40.7683 71.0876 40.7024 71.1232 40.6456C71.1397 40.6182 71.1561 40.5935 71.1699 40.5688C71.1781 40.5578 71.1836 40.5469 71.1891 40.5386C71.2083 40.5056 71.2276 40.4754 71.244 40.4508C71.2769 40.3986 71.3017 40.3602 71.3154 40.3355C71.3163 40.3335 71.3174 40.3315 71.3183 40.3296C71.3214 40.3241 71.3274 40.3161 71.3304 40.3106C71.3326 40.3068 71.3331 40.3062 71.3356 40.3027C71.4868 40.0822 71.6369 39.8697 71.7845 39.6659C72.1173 39.2064 71.7282 38.6191 71.2111 38.8524C70.3235 39.2529 69.7256 39.709 69.5943 39.8131C69.0444 40.2513 68.2448 40.1608 67.8101 39.6109C67.3746 39.061 67.4652 38.2594 68.0151 37.8212C68.6693 37.307 72.136 34.778 76.2881 35.9656C79.2792 36.8166 80.8474 39.1021 81.4384 39.9612C81.9142 40.6593 83.3736 42.7775 83.3269 45.7355C83.2921 47.991 82.3506 49.6141 80.6369 52.5612V52.5612Z" fill="white"/>
<path d="M53.6722 37.0922C53.4599 37.6064 53.2055 38.2441 52.932 38.9368C52.2942 40.5407 51.5705 42.3577 51.2227 43.0165C50.6225 44.1548 50.156 44.873 49.7826 45.4521C49.3563 46.1164 49.0159 46.6425 48.7588 47.3753C48.3086 48.6581 48.2282 50.0919 48.5209 51.651C47.7258 51.5631 46.4239 51.015 46.2765 50.3251C46.1667 49.811 46.4861 49.2492 47.4266 47.702C47.6151 47.3928 47.8173 47.057 48.0387 46.6836C49.6555 43.9608 50.3097 41.935 50.7909 40.4537C51.3097 38.8425 51.5549 38.1663 52.3811 37.6018C52.7507 37.3447 53.2009 37.181 53.6722 37.0922V37.0922Z" fill="white"/>
<path d="M52.0947 94.199C51.2135 95.999 50.1165 97.66 49.4331 98.4838C48.8667 96.9533 47.8831 93.447 48.143 90.6261C48.1503 90.5447 48.1594 90.4642 48.1713 90.3854C48.2756 89.5144 48.5071 88.7148 48.9189 88.0743C49.1906 87.6534 49.9427 87.3963 50.7973 87.3963C51.4276 87.3963 52.1138 87.5345 52.704 87.851H52.7086C53.0252 88.0203 53.4561 88.3625 53.501 89.358C53.5659 90.702 52.9254 92.509 52.0947 94.199V94.199Z" fill="white"/>
<path d="M100.375 74.0264C100.444 74.0814 100.487 74.1644 100.448 74.2431C100.185 74.7719 99.8687 75.1427 99.4963 75.58C99.0468 76.1152 98.5325 76.7228 98.0534 77.6698C97.3725 79.012 97.1544 80.2362 97.0401 83.3709C96.9049 87.0535 97.0468 89.1223 97.1544 90.6311C97.2563 92.0876 97.3192 92.966 97.0592 94.387C96.5353 97.2524 95.3096 99.1505 93.757 101.552C91.8146 104.556 89.8053 107.66 86.4776 108.65C86.1683 108.746 86.1583 108.746 85.29 108.749C84.5352 108.749 83.2789 108.75 80.901 108.839C76.554 108.996 74.3736 109.074 72.508 109.433C70.551 109.812 69.5298 110.229 68.5399 110.629C67.6469 110.99 66.8024 111.333 65.1838 111.666C64.2194 111.861 62.7774 112.073 57.8642 112.08C52.7578 112.09 49.6753 112.092 45.6047 111.629C40.0197 110.99 37.2163 110.671 35.3544 109.677C30.9626 107.334 29.108 103.121 26.0401 96.1419C26.0349 96.1295 26.0295 96.1172 26.0243 96.1048C25.9864 96.0181 26.0922 95.9343 26.1737 95.9829C26.3192 96.0733 26.4711 96.1476 26.6312 96.201C26.7648 96.2486 26.9048 96.2848 27.0457 96.3086C27.3266 96.3562 27.6193 96.3591 27.9167 96.3086C27.9689 96.2991 28.0165 96.2876 28.0622 96.2676C28.071 96.2648 28.0796 96.26 28.0883 96.2562C28.1402 96.2305 28.205 96.2524 28.2269 96.3057C28.4218 96.8438 28.7319 97.3219 29.2526 97.5981C29.7741 97.8705 30.367 97.8914 30.9471 97.8867C31.5445 97.8771 32.1466 97.8438 32.7422 97.7724C33.0578 97.7391 33.3806 97.8933 33.5015 98.1867C34.0465 99.5086 34.7223 100.466 35.7369 100.607C35.7917 100.614 35.8632 100.623 35.9537 100.623C36.1515 100.623 36.442 100.573 36.8388 100.339C37.3282 100.05 38.0654 100.232 38.4373 100.662C38.6561 100.915 38.8961 101.11 39.1075 101.28C40.1524 102.353 42.6924 102.868 44.8252 102.868C45.989 102.868 47.032 102.715 47.6459 102.415C48.5243 101.99 48.5243 101.335 48.4812 101.07C48.4066 100.596 48.3392 100.126 48.2813 99.6591C48.2744 99.6038 48.3592 99.5819 48.3815 99.6333C48.5096 99.9114 48.6652 100.259 49.0815 100.326C49.1263 100.33 49.1767 100.341 49.2343 100.341C49.8291 100.341 50.7535 100.534 50.9131 101.107C50.9942 101.398 51.1094 101.671 51.2655 101.919C51.6223 102.484 52.3488 103.157 53.789 103.181H53.9006C55.5548 103.181 56.8312 102.64 57.6921 101.571C57.748 101.502 57.8013 101.431 57.8524 101.359C58.1619 100.924 59.0808 100.905 59.4745 101.267C59.9173 101.676 60.4746 101.888 61.0958 101.888C61.1955 101.888 61.2962 101.883 61.4005 101.871C62.1407 101.792 62.7812 101.4 63.2596 100.731C63.5727 100.294 63.8012 99.7572 63.9681 99.1762C64.0172 99.0048 64.2521 98.9543 64.3833 99.0743C64.6998 99.3667 65.2067 99.6762 65.9377 99.6762C66.1161 99.6762 66.3092 99.6572 66.5142 99.6143C67.9505 99.3257 68.6659 98.1362 69.0047 96.7943C69.016 96.7495 69.0812 96.7372 69.1108 96.7724C69.475 97.2152 70.1466 97.7267 71.315 97.7267C71.3744 97.7267 71.4366 97.7267 71.4979 97.7238C72.1164 97.6952 72.638 97.4238 73.014 96.9381C73.4561 96.3619 73.6392 95.5181 73.689 94.6601C73.7073 94.3442 73.9103 94.0667 74.2004 93.9403C75.4155 93.4106 76.8493 92.3351 77.2768 91.5963C77.2798 91.5912 77.2828 91.586 77.2857 91.5808C77.4172 91.3494 77.6235 91.1608 77.8846 91.1097C78.7872 90.9333 79.1912 90.7588 79.5596 90.5981C79.8689 90.4627 80.1169 90.3556 80.8113 90.2477C86.3339 89.4051 87.4117 89.2192 88.6067 88.4224C90.3945 87.2302 90.4851 85.5896 90.573 84.0022C90.6489 82.6599 90.7349 81.1366 91.7771 79.3488C92.1558 78.6964 92.5932 77.882 93.0579 77.0211C93.8525 75.5467 94.9562 73.4961 95.7649 72.3704C95.9487 72.1147 96.2858 72.0347 96.5753 72.1582C98.4468 72.9564 100.03 73.7483 100.375 74.0264V74.0264Z" fill="white"/>
<path d="M46.7423 90.4524C46.5236 92.3619 46.39 94.9128 46.6992 98.2362C46.787 99.1733 46.9087 100.148 47.0606 101.132C46.7989 101.275 46.0176 101.476 44.6278 101.453C42.6304 101.413 40.6862 100.911 40.1024 100.28L40.0118 100.198C39.526 99.8076 39.2076 99.5505 39.1618 98.8533C39.1472 98.6181 39.2478 98.3848 39.4638 98.0552C39.5827 97.8695 39.7401 97.6562 39.9349 97.3914C40.2707 96.941 40.687 96.3791 41.1134 95.6562C42.3632 93.544 42.8372 92.8916 43.4392 92.0682C43.4868 92.0014 43.5371 91.9346 43.5893 91.866C43.9443 91.3801 44.3605 90.7991 44.9864 89.8449C45.453 89.1357 45.841 88.5804 46.1604 88.1449C46.6938 87.4193 47.0432 87.0258 47.2674 86.8117C47.2345 87.1402 47.1604 87.6023 47.089 88.0287C46.9828 88.6837 46.8493 89.4862 46.7423 90.4524Z" fill="white"/>
<path d="M45.8275 60.7699C45.8157 60.7864 45.801 60.8029 45.7891 60.8202C45.5293 61.1798 45.2319 61.5869 44.8778 62.3792C43.9253 64.4956 43.907 65.6932 43.8925 66.6567C43.8832 67.1618 43.8778 67.5634 43.7396 68.0328C43.6445 68.3421 43.4898 68.697 43.3114 69.106C42.7496 70.3915 42.0168 72.077 42.3452 74.3451C41.8905 74.1264 41.1951 73.6259 41.0982 73.3597C41.0744 73.2362 41.0478 73.1145 41.0194 72.9928C40.8621 72.2855 40.7578 71.8244 41.208 70.7887C42.3909 68.0603 42.5365 67.4133 42.6288 66.6704C42.6481 66.5085 42.6673 66.3822 42.7148 66.1772C42.9647 65.1012 43.0955 64.1799 43.2026 63.4397C43.3617 62.3162 43.4688 61.5732 43.8476 61.0142C43.9857 60.8074 44.3765 60.7004 44.9355 60.7004C45.1569 60.7004 45.4067 60.7168 45.6785 60.7552L45.7425 60.7598C45.7699 60.7626 45.7992 60.7653 45.8275 60.7699V60.7699Z" fill="white"/>
<path d="M44.2665 87.6817C44.2025 87.0275 44.0881 86.3724 43.8502 85.7557C43.8338 85.7246 43.7624 85.5672 43.7478 85.537C43.7048 85.4584 43.6554 85.3843 43.6096 85.3065C43.6069 85.3037 43.605 85.3037 43.605 85.3019C43.6022 85.2973 43.6004 85.2973 43.6004 85.2946C43.574 85.2662 43.5501 85.2378 43.5245 85.2113C43.4861 85.1729 43.444 85.1353 43.4028 85.1015C43.3955 85.0924 43.3881 85.085 43.3818 85.0823C43.3625 85.0658 43.3342 85.0439 43.3031 85.0256C43.2528 84.999 43.2052 84.9707 43.1558 84.945C43.1411 84.9359 43.1055 84.9212 43.0725 84.9094C43.0725 84.9094 43.0698 84.9094 43.0698 84.9067C43.0624 84.9039 43.0551 84.9021 43.0487 84.8993C43.0414 84.8948 43.0368 84.892 43.0322 84.8902C43.0249 84.8874 43.0203 84.8856 43.0158 84.8856C43.0112 84.8856 43.0112 84.8829 43.0112 84.8829C42.9966 84.8755 42.9875 84.8737 42.9801 84.871C42.5995 84.731 42.2134 84.5782 41.809 84.5187C41.8062 84.5187 41.7999 84.516 41.7943 84.516H41.7852C41.7403 84.516 41.647 84.5068 41.6424 84.5068C41.5858 84.5041 41.5308 84.5041 41.476 84.5068C41.4494 84.5068 41.4238 84.5068 41.4 84.5095H41.3789C41.3698 84.5095 41.3579 84.5123 41.3461 84.5123C41.3415 84.5169 41.3341 84.5169 41.3314 84.5169C41.3286 84.5169 41.3268 84.5169 41.3268 84.5169C41.2362 84.5434 41.141 84.5672 41.0504 84.5955C41.0121 84.6148 40.97 84.634 40.9316 84.6578C40.8986 84.677 40.8647 84.7008 40.8318 84.7172C40.829 84.72 40.8245 84.7246 40.8199 84.7246L40.8126 84.7319C40.7696 84.7749 40.7247 84.8151 40.6818 84.8582C40.6671 84.8728 40.6268 84.9222 40.5985 84.9579C40.5912 84.9625 40.5866 84.967 40.5866 84.9716C40.5839 84.9744 40.5839 84.9744 40.5821 84.9762C40.5793 84.9789 40.5793 84.9808 40.5747 84.9835C40.572 84.9863 40.572 84.9881 40.5701 84.9881C40.5582 85.0091 40.5463 85.0265 40.5418 85.0356C40.389 85.2735 40.2343 85.5096 40.0751 85.7448C39.7082 86.3066 39.3321 86.8655 38.9516 87.4209C38.6039 87.9232 38.2562 88.4255 37.9113 88.9279C37.7182 89.2088 37.5279 89.487 37.3376 89.7678C37.3046 89.8153 37.2736 89.8629 37.2424 89.9106C37.4684 89.9535 37.6944 89.9984 37.9232 90.0413C38.4346 90.1347 38.9442 90.2244 39.463 90.2957C40.5317 90.4412 41.6178 90.508 42.7001 90.4696C42.7523 90.4669 42.8044 90.4696 42.8529 90.4788C43.1128 90.1072 43.4193 89.6644 43.81 89.0715C44.0268 88.7403 44.2336 88.4338 44.4285 88.1502C44.3406 88.0148 44.2858 87.8528 44.2665 87.6817V87.6817Z" fill="white"/>
<path d="M40.462 92.0978C40.3696 92.9212 39.4482 95.054 38.0099 97.0848C36.8059 98.7819 36.0748 99.1933 35.9293 99.2076C35.3483 99.1276 34.7746 97.6895 34.3199 96.2638C34.1369 95.6857 33.9722 95.109 33.834 94.6258C33.522 93.5407 33.4653 92.0859 33.5202 91.1719C34.7343 91.8452 36.8671 92.0265 39.8618 92.0384H39.8709C40.0686 92.0593 40.2643 92.0813 40.462 92.0978V92.0978Z" fill="white"/>
<path d="M38.3311 85.3177V85.3223C38.3164 85.3415 38.3045 85.3626 38.2908 85.3817C37.7766 86.1384 37.2579 86.8914 36.7391 87.6453C36.47 88.0333 36.2038 88.4212 35.9394 88.8119C35.7939 89.0242 35.599 89.2575 35.4298 89.5091C35.0034 89.4094 34.5779 89.3115 34.1561 89.1926C33.8112 89.0928 33.4708 88.9858 33.1369 88.8522C33.07 88.8284 33.006 88.8019 32.9438 88.7717C32.8889 88.66 32.8102 88.5594 32.7151 88.4834C32.7178 88.4807 32.7178 88.4743 32.7197 88.4715C32.8414 88.2236 32.9649 87.9738 33.0865 87.7268C33.3171 87.2721 33.5486 86.8201 33.8057 86.3818C34.2632 85.5912 34.8149 84.787 35.589 84.2747C35.6274 84.2463 35.6695 84.2197 35.7106 84.1941C36.0107 84.0056 36.3109 83.8729 36.6796 83.8272C36.7226 83.8227 36.9816 83.8245 37.1032 83.8346C37.1242 83.8346 37.1417 83.8373 37.1536 83.8373H37.1562C37.1655 83.8401 37.1828 83.8447 37.2084 83.8538C37.299 83.8822 37.3896 83.9013 37.4801 83.9325C37.5113 83.9471 37.5397 83.9609 37.5707 83.9773C37.6495 84.0249 37.7299 84.0679 37.804 84.1273C37.6851 84.0368 37.9687 84.3295 37.9687 84.3085C38.1975 84.625 38.267 84.8895 38.3311 85.3177V85.3177Z" fill="white"/>
<path d="M34.2577 83.1662C33.3052 83.9493 32.6126 84.9924 32.0343 86.0775C31.7104 86.6796 31.4177 87.2935 31.113 87.9056C31.0818 87.9678 31.0507 88.0273 31.0151 88.0887C30.7269 88.0264 30.4386 87.9432 30.1578 87.8535C29.8577 87.7583 29.5603 87.6486 29.2748 87.5159C29.1439 87.4536 29.0132 87.3896 28.8823 87.321C29.1678 86.7802 29.5081 86.2614 29.832 85.7573C30.2895 85.0455 30.7845 84.3455 31.3225 83.6886C31.5247 83.4389 31.7388 83.1652 32.0224 83.0006C32.3125 82.8294 32.6629 82.8697 32.9959 82.889C33.3482 82.9109 33.727 82.92 34.06 83.0536C34.1287 83.0829 34.2028 83.1287 34.2577 83.1662V83.1662Z" fill="white"/>
<path d="M32.7454 95.9467C32.6978 95.9867 32.6575 96.0305 32.6219 96.08C32.5889 96.0895 32.555 96.0971 32.534 96.1019C32.3053 96.1257 32.072 96.1429 31.8414 96.1571C31.3985 96.1857 30.9483 96.2048 30.5009 96.1886C30.2512 96.179 30.0252 96.141 29.9227 95.9819C29.758 95.7314 29.7086 95.2962 29.6491 94.9651C29.3563 93.3391 29.318 91.6447 29.5256 89.9995C30.3756 90.3042 31.2494 90.5403 32.146 90.6876C31.953 92.1708 32.2815 94.3483 32.4745 95.0153C32.5641 95.3257 32.6547 95.6391 32.7454 95.9467Z" fill="white"/>
<path d="M30.0113 82.6275C29.2592 83.5508 28.5738 84.5343 27.959 85.5527C27.7111 85.9671 27.4301 86.3953 27.2234 86.8382C26.926 86.755 26.657 86.636 26.3716 86.4594C26.1529 86.324 25.9406 86.1739 25.7338 86.0166C25.6817 85.9735 25.5389 85.8619 25.4502 85.7906C25.4292 85.7741 25.4099 85.7576 25.3879 85.7457C25.4566 85.5509 25.5829 85.334 25.6524 85.1885C25.8097 84.8436 25.9855 84.5051 26.1694 84.1748C26.5189 83.5563 26.9096 82.9514 27.3524 82.3943C27.5171 82.1893 27.6736 81.9249 27.9288 81.849C28.1621 81.7821 28.4696 81.8132 28.6571 81.8462C29.2143 81.9542 29.6498 82.2067 30.0113 82.6275Z" fill="white"/>
<path d="M24.2109 86.6523C24.2232 86.6042 24.2849 86.5979 24.3139 86.6383C24.5106 86.9123 24.7808 87.1512 25.0702 87.3768C25.2 87.4754 25.3289 87.574 25.46 87.6669C25.4803 87.6813 25.49 87.7067 25.4842 87.7308C25.1812 88.9877 24.972 90.3196 24.965 91.6347C24.9646 91.7073 24.855 91.7228 24.8381 91.6523C24.4629 90.0827 23.9755 87.5739 24.2109 86.6523V86.6523Z" fill="white"/>
<path d="M27.8993 89.4406C27.7465 90.5642 27.6733 91.6905 27.7227 92.8231C27.7465 93.4444 27.8133 94.0611 27.8965 94.675C27.8965 94.6796 27.8965 94.6842 27.8993 94.687V94.6897C27.7657 94.6586 27.6258 94.654 27.483 94.675C27.5114 94.6659 27.4381 94.6705 27.4071 94.6705H27.3979C27.3769 94.6677 27.3458 94.6659 27.3357 94.6631C27.1783 94.6248 27.1646 94.6083 27.0401 94.5295C26.8782 94.4252 26.7071 94.234 26.5927 94.0391C26.2908 93.5158 26.2241 92.8799 26.2002 92.287C26.1554 91.1231 26.2551 89.9611 26.472 88.8211C26.6577 88.897 26.8197 88.9667 27.0886 89.0829C27.3549 89.199 27.6312 89.3134 27.9002 89.4378V89.4406H27.8993Z" fill="white"/>
<g opacity="0.8">
<path opacity="0.8" d="M57.6065 148.231C52.4797 148.231 47.6172 147.908 43.5369 147.59L42.4121 147.502L41.2887 147.346C40.7975 147.277 40.1294 147.205 39.4848 147.134C35.5595 146.708 28.2596 145.912 20.2008 142.128L18.9492 141.538L17.7821 140.884C2.29347 132.203 -3.50302 119.137 -6.62421 112.113C-6.82291 111.667 -7.06384 111.124 -7.2907 110.624C-8.86614 107.399 -9.8627 104.492 -10.7076 101.831L-10.8953 101.236L-11.0518 100.659C-13.2999 92.6692 -13.8678 85.7698 -12.8384 78.947C-11.8058 72.096 -9.26824 65.863 -4.85947 59.339L-2.57372 55.6062C-2.1094 54.8522 -1.78156 54.0223 -1.60529 53.1546C0.137571 44.517 4.09264 38.3982 6.03575 35.4757C6.57061 31.9385 7.45257 28.4626 8.66882 25.0983L8.85029 24.5883L9.04428 24.0908C9.07558 24.0031 9.11627 23.8796 9.19136 23.6543C10.0643 21.0244 12.1107 14.8711 17.3519 8.40974L19.32 6.02544L21.3257 4.21375C26.4775 -0.467524 32.6147 -3.9321 39.2846 -5.92424C43.0082 -7.03474 46.8472 -7.71348 50.7259 -7.94713L51.1013 -7.9753L51.6661 -8.00188C52.3373 -8.03318 53.0053 -8.04883 53.6577 -8.04883C56.078 -8.05333 58.4941 -7.84971 60.8795 -7.44024C62.3699 -7.18939 63.9008 -7.36455 65.2961 -7.94557C69.4317 -9.67067 73.7784 -10.8376 78.222 -11.4156C78.5928 -11.4689 78.9166 -11.5095 79.1717 -11.5424C79.8725 -11.63 80.9864 -11.7614 82.332 -11.8897C84.6787 -12.1134 88.277 -12.381 92.1774 -12.381C99.7953 -12.381 106.351 -11.3937 112.222 -9.36458L112.721 -9.19092L113.209 -9.00788C126.163 -4.11254 132.757 2.72591 137.499 8.75865L137.725 9.0465L138.377 9.62695C142.661 12.9784 146.305 17.0766 149.131 21.7237L150.015 23.1787L150.762 24.7041C157.098 37.6378 155.085 49.5797 154.326 54.0667L154.285 54.306C153.739 57.6162 152.871 60.8649 151.692 64.006C151.259 67.0343 150.546 70.0159 149.562 72.9127C147.88 78.0616 145.398 82.914 142.209 87.2921C140.371 89.89 138.298 92.3118 136.013 94.5263C135.206 95.3067 134.682 96.3352 134.526 97.4476C134.427 98.1324 134.314 98.8095 134.186 99.4809C132.329 109.444 127.971 116.378 126.192 119.139L120.815 126.862C114.34 134.93 106.657 140.25 97.3591 143.11L95.1061 143.816L92.6733 144.24C89.89 144.731 87.0685 144.975 84.2422 144.97C83.8526 144.97 83.46 144.97 83.025 144.958H82.8999L82.4196 144.988L81.9048 145.007H81.8907C80.8134 145.043 79.7452 145.219 78.7132 145.53C72.7071 147.368 65.9141 148.231 57.6065 148.231V148.231Z" stroke="url(#paint1_linear_705_177)" stroke-width="1.01688" stroke-miterlimit="10"/>
<path opacity="0.8" d="M57.6064 142.926C52.6938 142.926 47.9817 142.613 44.0218 142.3L43.0832 142.228L42.1444 142.098C41.5593 142.017 40.8443 141.942 40.1544 141.864C36.3418 141.449 29.9679 140.756 22.8525 137.419L21.8075 136.928L20.8358 136.382C7.16838 128.715 2.1119 117.333 -0.910717 110.531C-1.12662 110.047 -1.391 109.45 -1.63819 108.909C-3.04625 106.021 -3.96931 103.353 -4.74843 100.898L-4.90488 100.404L-5.04099 99.9219C-7.04043 92.8163 -7.55672 86.7523 -6.66494 80.8353C-5.77318 74.9184 -3.52655 69.4505 0.392528 63.6868L3.32127 58.9041C3.83919 58.0568 4.19466 57.1203 4.36948 56.1428C5.8276 48.0183 9.66537 42.2578 11.4098 39.6356L11.6303 39.304L11.7118 39.1726C11.7477 39.0928 11.7821 39.0161 11.815 38.9331C11.9214 38.5874 12.0261 38.2527 12.1278 37.9334C12.5866 34.6006 13.3968 31.3255 14.545 28.1631L14.7015 27.7376L14.8689 27.3105C14.922 27.1744 14.9721 27.0273 15.1192 26.5861C15.9499 24.083 17.6787 18.8856 22.2018 13.3097L23.8429 11.3229L25.5091 9.81619C29.9759 5.75743 35.2975 2.75373 41.0806 1.02682C44.3638 0.052131 47.748 -0.542632 51.1669 -0.745774L51.4798 -0.770792L51.9492 -0.792698C52.5202 -0.819294 53.0898 -0.83181 53.6451 -0.83181C56.0977 -0.836172 58.5442 -1.54218 60.9467 -1.04888C62.8007 -0.665401 64.7281 -0.870513 66.4599 -1.63557C69.6954 -3.0624 74.0509 -3.63227 79.037 -4.25338C79.3921 -4.30501 79.7019 -4.34413 79.9429 -4.37385C80.5984 -4.45677 81.6466 -4.58038 82.9154 -4.70084C85.1214 -4.91205 88.5163 -5.1702 92.1663 -5.1702C99.0771 -5.1702 104.964 -4.29563 110.166 -2.49644L110.582 -2.35252L110.989 -2.19607C122.47 2.1423 128.146 7.94976 132.567 13.5804C132.812 13.8933 133.064 14.214 133.158 14.3251L133.263 14.419L134.101 15.1652L134.214 15.281C138.033 18.207 141.275 21.8183 143.773 25.9306L144.509 27.143L145.134 28.4134C150.585 39.5387 148.876 49.6594 148.148 53.9822L148.109 54.2122C147.591 57.3525 146.745 60.4296 145.583 63.3927C145.217 66.2764 144.561 69.1157 143.625 71.8676C142.137 76.4238 139.943 80.7177 137.121 84.5917C135.21 87.3072 133.002 89.8 130.536 92.0231C129.391 93.0505 128.669 94.466 128.509 95.9952C128.39 97.1219 128.229 98.2171 128.027 99.2914C126.389 108.086 122.56 114.169 120.808 116.892L116.452 123.224C110.664 130.662 103.805 135.526 95.4952 138.087L93.6181 138.675L91.5843 139.027C89.1568 139.455 86.6961 139.669 84.2312 139.664C83.8729 139.664 83.5068 139.664 83.1125 139.654H83.0015H82.7683C82.7683 139.654 82.6901 139.654 82.5305 139.666L82.1003 139.692L81.667 139.708L80.8018 139.741C79.6581 139.781 78.5254 139.978 77.435 140.326C71.9029 142.092 65.5103 142.926 57.6064 142.926V142.926Z" stroke="url(#paint2_linear_705_177)" stroke-width="1.01688" stroke-miterlimit="10"/>
<path opacity="0.8" d="M57.6065 136.668C52.913 136.668 48.3477 136.363 44.5053 136.064L43.7559 136.006L43.0081 135.903C42.3306 135.809 41.5687 135.726 40.8318 135.645C37.1881 135.249 31.6857 134.65 25.5154 131.755L24.6783 131.363L23.8961 130.926C12.0434 124.282 7.69095 114.48 4.80913 107.993C4.56351 107.438 4.28502 106.812 4.02688 106.232C2.77528 103.687 1.93983 101.258 1.22798 99.0105L1.10282 98.6162L0.993301 98.2295C-0.757375 92.009 -1.22046 86.779 -0.46637 81.7741C0.298673 76.6988 2.29184 71.9677 5.80259 66.8831L6.22032 66.2792L6.67246 65.6988C6.95721 65.3358 7.23098 64.9775 7.50007 64.627L9.26171 61.3964C9.83946 60.3405 10.2296 59.1923 10.4147 58.0029C11.5349 50.7547 15.0269 45.5182 16.6383 43.1027L16.6462 43.0901C16.7385 42.9525 16.8574 42.7772 16.9184 42.6802L17.2626 42.131C17.3972 41.8369 17.5755 41.4458 17.7319 41.0359C17.8884 40.5462 18.0746 39.9408 18.2779 39.315C18.6598 36.2272 19.3915 33.193 20.4589 30.2706L20.5809 29.9295L20.7139 29.5853C20.8265 29.299 20.9095 29.0503 21.0721 28.5606C21.8435 26.2435 23.2734 21.9427 27.0767 17.2508L28.3925 15.6596L29.7207 14.4597C33.5018 11.0237 38.0063 8.4809 42.9017 7.01889C45.7431 6.17562 48.6726 5.66428 51.6317 5.49508L51.8819 5.47629L52.2621 5.45909C52.7315 5.43719 53.2008 5.42625 53.6701 5.42625C56.2144 5.42274 58.7487 5.74504 61.2111 6.38528C63.3429 6.92459 65.5971 6.68664 67.5692 5.7141C70.7248 4.18246 74.9458 2.55692 79.8913 1.94989C80.2308 1.9014 80.5171 1.86386 80.7501 1.83412C81.365 1.75747 82.3444 1.64169 83.5335 1.52123C85.6033 1.32253 88.7855 1.0863 92.1898 1.0863C98.3934 1.0863 103.611 1.84821 108.148 3.41584L108.481 3.53163L108.807 3.65365C119.352 7.64 124.074 12.8608 127.671 17.4401C128.465 18.4491 128.585 18.6056 129.13 19.089L129.801 19.6867L130.062 19.9542C131.797 21.2981 135.345 24.0657 138.451 29.1848L139.04 30.1548L139.538 31.1702C144.103 40.4868 142.683 48.9007 142.001 52.945L141.963 53.1687C141.474 56.134 140.649 59.0336 139.5 61.8109L139.47 62.066C139.166 64.7229 138.579 67.3395 137.718 69.8713C136.427 73.8359 134.518 77.5719 132.063 80.9417C130.009 83.8863 127.539 86.5185 124.731 88.7565C124.064 89.286 123.516 89.9525 123.128 90.711C122.738 91.4696 122.516 92.3027 122.475 93.1543C122.399 94.826 122.207 96.4905 121.9 98.1352C120.482 105.761 117.153 111.048 115.454 113.687L112.078 118.676C106.989 125.47 100.956 129.869 93.6652 132.104L92.1648 132.573L90.5424 132.855C88.4678 133.222 86.3646 133.404 84.2578 133.4C83.9308 133.4 83.5976 133.4 83.2377 133.39H83.1548H82.795C82.7339 133.39 82.5478 133.39 82.1692 133.413L81.825 133.435L81.4917 133.448L79.752 133.512C78.5335 133.554 77.3273 133.771 76.1709 134.158C71.1035 135.865 65.1255 136.668 57.6065 136.668V136.668Z" stroke="url(#paint3_linear_705_177)" stroke-width="0.953329" stroke-miterlimit="10"/>
<path opacity="0.8" d="M57.6055 130.41C53.1201 130.41 48.7097 130.113 44.9893 129.825L44.4277 129.781L43.8661 129.704C43.0979 129.597 42.2891 129.509 41.5053 129.424C38.0805 129.05 33.3979 128.542 28.171 126.09L27.5452 125.794L26.9616 125.468C16.9237 119.835 13.2315 111.526 10.5343 105.454C10.2543 104.829 9.96325 104.17 9.67534 103.539C8.5286 101.233 7.79797 99.019 7.19095 97.1248L7.09709 96.8286L7.01572 96.54C4.08071 86.1089 5.1837 78.7918 10.9505 70.4436L11.2633 69.9899L11.6029 69.555C11.9861 69.0652 12.3444 68.5944 12.698 68.1469C13.2299 67.4491 13.7681 66.7389 14.3549 66.0082C14.7189 65.553 15.0127 65.0456 15.2262 64.5031L15.888 62.8135C16.1685 62.095 16.3445 61.34 16.4106 60.5716C16.9848 53.8802 20.2389 49.0021 21.8504 46.585L21.8597 46.5724C21.9771 46.394 22.1554 46.1281 22.2149 46.0327L22.5919 45.4303L22.7077 45.2738C22.908 44.8687 23.3007 44.0129 23.6464 43.1164C23.8326 42.5031 24.1267 41.5613 24.4146 40.7055C24.4146 40.6727 24.4146 40.6367 24.4271 40.5991C24.7355 37.7952 25.3816 35.039 26.3514 32.3902L26.4437 32.1336L26.5438 31.8754C26.7191 31.4295 26.8427 31.0572 27.0132 30.5425C27.7016 28.4742 28.8531 25.012 31.9383 21.2071L32.9254 20.0118L33.9158 19.117C41.2032 12.5053 49.3575 11.9343 52.0829 11.7512L52.2706 11.7371L52.5585 11.7231C52.9293 11.7058 53.3 11.698 53.663 11.698C56.8986 11.7094 60.0995 12.3641 63.0797 13.6239C63.6076 13.8432 64.1776 13.943 64.7487 13.9159C65.3196 13.8889 65.8776 13.7357 66.3824 13.4674H66.398C69.1688 11.8608 74.244 8.94762 80.7149 8.1685C81.0277 8.12156 81.3156 8.08558 81.5268 8.05898C82.0963 7.98702 83.0052 7.88064 84.1223 7.77269C86.0561 7.58808 89.0255 7.36747 92.1827 7.36747C97.6791 7.36747 102.229 8.01832 106.092 9.3544L106.343 9.44044L106.587 9.53277C115.625 12.9481 119.523 17.2332 122.739 21.3291C123.604 22.4243 123.99 22.9328 124.959 23.787L125.463 24.236L125.867 24.6506L126.179 24.8977C127.711 26.0836 130.56 28.2911 133.089 32.4496L133.531 33.1771L133.905 33.9391C137.582 41.4487 136.431 48.259 135.813 51.9199L135.777 52.1373C135.342 54.7986 134.585 57.397 133.522 59.8753L133.432 60.0882C133.423 60.1335 133.41 60.2008 133.391 60.2993C133.343 60.5512 133.315 60.7515 133.282 61.0065L133.245 61.2944C132.994 63.5388 132.5 65.7493 131.772 67.8872C130.677 71.2592 129.056 74.437 126.968 77.3024C124.903 80.2343 122.588 82.6217 119.989 84.5116C118.848 85.3449 117.916 86.4319 117.268 87.6869C116.618 88.9417 116.27 90.3302 116.25 91.7428C116.228 93.5044 116.055 95.261 115.734 96.9933C114.536 103.453 111.78 107.828 110.064 110.493L107.61 114.171C103.217 120.31 98.0343 124.229 91.7962 126.138L91.4661 126.242C90.9368 126.408 90.3969 126.539 89.85 126.632L89.4542 126.702C87.7333 127.007 85.9889 127.158 84.2413 127.153C83.9455 127.153 83.6452 127.153 83.3197 127.146H83.2666C83.1179 127.146 82.9536 127.146 82.7784 127.146C82.6564 127.146 82.3341 127.146 81.7521 127.182L81.4939 127.197L81.2421 127.207C80.4051 127.238 79.3647 127.274 78.4369 127.315C77.1653 127.368 75.9093 127.614 74.7118 128.046C70.2217 129.65 64.7272 130.41 57.6055 130.41V130.41Z" stroke="url(#paint4_linear_705_177)" stroke-width="0.889774" stroke-miterlimit="10"/>
<g opacity="0.8">
<path opacity="0.8" d="M57.6064 124.151C53.3338 124.151 49.0767 123.865 45.4752 123.585L45.0998 123.556L44.7259 123.504C43.8638 123.385 43.0049 123.29 42.1773 123.201C39.0295 122.859 35.112 122.431 30.8283 120.423L30.4091 120.226L30.0211 120.009C21.7981 115.398 18.7254 108.476 16.2534 102.914C15.95 102.23 15.6277 101.522 15.3147 100.833C14.3463 98.9019 13.6907 96.9229 13.1525 95.2281L13.09 95.0325L13.0352 94.8401C10.6134 86.2353 11.4128 80.7736 16.0954 73.9946L16.3035 73.6927L16.5303 73.4032C16.9387 72.8807 17.3126 72.3926 17.6693 71.9216C18.8912 70.3196 20.0661 68.777 21.8231 66.9011C22.2083 66.4895 22.4389 65.9571 22.4755 65.3946L22.6084 63.3701L22.5568 62.7068L22.5802 62.0184C22.7633 56.4659 25.5528 52.2887 27.0454 50.0451C27.2175 49.7854 27.3974 49.5179 27.5038 49.3474L27.7557 48.9469L27.9888 48.634C28.2673 48.1788 28.9995 46.6268 29.5533 45.1373C29.7441 44.5115 30.1134 43.3178 30.4388 42.3712C30.5342 42.0693 30.5436 41.9958 30.6219 41.3481C30.8762 39.005 31.4158 36.7016 32.2286 34.4893L32.2896 34.3172L32.3568 34.1435C32.5884 33.5522 32.7496 33.0688 32.9358 32.5087C33.5256 30.7345 34.4142 28.0608 36.7828 25.1398L37.4431 24.3419L38.097 23.7506C43.2021 19.1149 48.7638 18.2372 52.5171 17.9853L52.6438 17.9744H52.8378C53.1101 17.9619 53.3807 17.9556 53.6466 17.9556C56.8523 17.9556 60.6869 19.4935 62.7004 20.4229C63.182 20.6438 63.7024 20.7673 64.232 20.7865C64.7614 20.8055 65.2894 20.7197 65.7857 20.5339C67.0384 20.0801 68.2594 19.5428 69.4403 18.9256C72.0014 17.4393 76.2505 14.9847 81.5277 14.3698C81.8186 14.326 82.08 14.2931 82.2959 14.2649C82.8262 14.1992 83.6632 14.1085 84.7004 14.0006C86.4997 13.8285 89.2547 13.6235 92.1662 13.6235C96.9533 13.6235 100.835 14.1617 104.031 15.2663L104.197 15.3241L104.354 15.3851C111.903 18.2372 114.907 21.5149 117.796 25.193C118.734 26.3789 119.398 27.2269 120.776 28.4597L121.111 28.7586L121.424 29.0714C121.706 29.3501 122.009 29.6058 122.329 29.8365C123.626 30.8393 125.797 32.5196 127.723 35.6909L128.017 36.1758L128.268 36.6843C131.058 42.3807 130.162 47.6937 129.626 50.8681L129.589 51.084C129.233 53.2753 128.609 55.4145 127.729 57.4531V57.4688C127.486 57.996 127.318 58.5548 127.23 59.1287C127.155 59.5292 127.108 59.8515 127.063 60.2082L127.025 60.4992C126.824 62.3303 126.424 64.1339 125.831 65.878C124.938 68.6606 123.602 71.2809 121.874 73.6379C119.325 77.2754 116.377 79.835 112.826 81.4605C111.963 81.8542 111.226 82.4788 110.696 83.265C110.166 84.0513 109.863 84.9688 109.822 85.9162C109.805 86.3041 109.798 86.6233 109.809 86.8016C109.985 89.538 110.183 92.6389 109.573 95.8333C108.595 101.117 106.358 104.669 104.676 107.276C104.676 107.276 96.96 118.015 89.9384 120.158L89.1828 120.394L88.3708 120.537C87.0043 120.78 85.6189 120.9 84.2311 120.895C83.9682 120.895 83.6992 120.895 83.4098 120.888H83.3847C83.1985 120.888 82.9967 120.888 82.7683 120.888C82.493 120.888 82.044 120.888 81.3461 120.936L81.1757 120.947H81.0067C78.3204 121.044 75.7812 121.134 75.0757 121.272C74.698 121.331 74.3297 121.439 73.9804 121.594C70.0066 123.336 64.7953 124.151 57.6064 124.151V124.151Z" stroke="url(#paint5_linear_705_177)" stroke-width="0.826219" stroke-miterlimit="10"/>
<path opacity="0.8" d="M57.6062 117.893C53.5479 117.893 49.441 117.617 45.9585 117.346L45.7723 117.332L45.5861 117.306C44.6333 117.174 43.729 117.075 42.8529 116.98C39.8897 116.658 36.8248 116.325 33.4846 114.758L33.275 114.658L33.081 114.55C26.6665 110.952 24.2838 105.578 21.973 100.374C21.6445 99.6362 21.3049 98.8724 20.9545 98.1133C20.1723 96.5676 19.6185 94.9096 19.1209 93.3388L19.0896 93.2418L19.0615 93.1432C17.1356 86.2938 17.6252 82.7972 21.2518 77.5514L21.3566 77.3949L21.4692 77.2494C21.8947 76.7066 22.2812 76.1997 22.6536 75.71C24.3965 73.4243 25.903 71.4483 29.2792 68.3318L29.2886 68.3224C29.5362 68.0858 29.71 67.7828 29.7891 67.4496C29.8683 67.1165 29.8493 66.7675 29.7345 66.4449L29.1259 64.7099C29.0036 64.1629 28.9179 63.6084 28.8693 63.05V63.0312L28.8318 62.5619L28.8444 62.2177C28.9679 58.4488 30.9502 55.4778 32.2612 53.5112C32.4662 53.1984 32.6617 52.912 32.8135 52.668L32.9386 52.4677L33.0794 52.2784C33.7756 51.3397 34.9067 48.741 35.5013 47.1311C35.6577 46.6352 36.0583 45.3038 36.3915 44.3386C36.6287 43.6126 36.7825 42.862 36.8499 42.1013C37.0466 40.2175 37.4786 38.3659 38.1359 36.5895L38.1672 36.5019L38.2016 36.4159C38.491 35.6728 38.6945 35.0626 38.8916 34.4712C39.4157 32.8957 40.0086 31.109 41.6592 29.0737L41.9908 28.6731L42.3147 28.3806C45.9412 25.0857 49.9166 24.4224 52.983 24.219H53.0472H53.1473C53.3194 24.219 53.4915 24.2081 53.6621 24.2081C56.6456 24.2081 58.9391 25.4315 60.4566 26.2419L60.8103 26.4297L60.8635 26.4578C61.2796 26.6831 61.6457 26.8803 61.9852 27.0476C62.9282 27.5207 64.0118 27.632 65.0313 27.3606C67.1089 26.802 70.3506 25.5723 72.5315 24.3739L72.5769 24.3473C74.8705 23.0175 78.3249 21.0149 82.3739 20.5706C82.6288 20.5299 82.8729 20.5002 83.1029 20.4705C83.5723 20.411 84.3546 20.314 85.3105 20.228C86.975 20.0715 89.5174 19.879 92.1817 19.879C96.2618 19.879 99.4742 20.3047 102.002 21.1776L102.085 21.2073L102.169 21.2387C108.226 23.5275 110.435 25.9228 112.896 29.0611C113.897 30.3362 114.844 31.5409 116.638 33.1383L116.806 33.2948L116.962 33.4511C117.448 33.9406 117.97 34.391 118.527 34.7982C119.603 35.6321 121.078 36.7742 122.404 38.955L122.55 39.1976L122.675 39.4526C124.58 43.3404 123.946 47.0984 123.483 49.8409L123.447 50.0568C123.169 51.787 122.674 53.475 121.971 55.0805C121.562 56.0047 121.27 56.9772 121.105 57.9748C120.995 58.5536 120.931 59.0058 120.878 59.425L120.84 59.7223C120.689 61.1401 120.383 62.5368 119.925 63.887C119.23 66.0774 118.181 68.1388 116.818 69.9886C114.518 73.2897 111.968 75.3251 108.581 76.403C106.958 76.9164 105.561 77.9741 104.628 79.3975L104.358 79.8106L104.061 80.1501C103.201 81.1294 103.443 84.9249 103.591 87.1903C103.748 89.6763 103.915 92.2468 103.451 94.667C102.688 98.8048 100.915 101.598 99.3285 104.054C99.3285 104.054 93.4365 112.554 88.1203 114.169L87.7339 114.29L87.327 114.361C86.3145 114.542 85.2877 114.631 84.2591 114.627C84.0275 114.627 83.7897 114.627 83.5378 114.627C83.3141 114.627 83.0685 114.627 82.7963 114.627C82.4348 114.627 81.8576 114.627 80.9784 114.688H80.8938H80.8093C77.2438 114.818 75.0926 114.894 73.9036 115.126C73.1033 115.268 72.3221 115.501 71.5756 115.822C68.3919 117.233 63.9455 117.893 57.6062 117.893V117.893Z" stroke="url(#paint6_linear_705_177)" stroke-width="0.826219" stroke-miterlimit="10"/>
</g>
</g>
</g>
<defs>
<radialGradient id="paint0_radial_705_177" cx="0" cy="0" r="1" gradientUnits="userSpaceOnUse" gradientTransform="translate(70 77.3355) rotate(90) scale(78.6434)">
<stop offset="0.166667" stop-color="#073183"/>
<stop offset="1" stop-color="#0054F9"/>
</radialGradient>
<linearGradient id="paint1_linear_705_177" x1="-13.3333" y1="-12.381" x2="147.091" y2="155.993" gradientUnits="userSpaceOnUse">
<stop offset="0.205697" stop-color="#89D0FF"/>
<stop offset="0.398413" stop-color="#EBBF9A"/>
<stop offset="0.601546" stop-color="#EB8280"/>
<stop offset="0.841139" stop-color="#A281FF"/>
</linearGradient>
<linearGradient id="paint2_linear_705_177" x1="-7.08618" y1="-5.1702" x2="140.807" y2="150.687" gradientUnits="userSpaceOnUse">
<stop offset="0.205697" stop-color="#89D0FF"/>
<stop offset="0.398413" stop-color="#EBBF9A"/>
<stop offset="0.601546" stop-color="#EB80DA"/>
<stop offset="0.841139" stop-color="#A281FF"/>
</linearGradient>
<linearGradient id="paint3_linear_705_177" x1="-0.814698" y1="1.0863" x2="134.545" y2="144.423" gradientUnits="userSpaceOnUse">
<stop offset="0.205697" stop-color="#89D0FF"/>
<stop offset="0.398413" stop-color="#EBBF9A"/>
<stop offset="0.601546" stop-color="#EB8280"/>
<stop offset="0.841139" stop-color="#A281FF"/>
</linearGradient>
<linearGradient id="paint4_linear_705_177" x1="5.44458" y1="7.36747" x2="128.243" y2="138.147" gradientUnits="userSpaceOnUse">
<stop offset="0.205697" stop-color="#89D0FF"/>
<stop offset="0.398413" stop-color="#EBBF9A"/>
<stop offset="0.601546" stop-color="#EB80E7"/>
<stop offset="0.841139" stop-color="#A281FF"/>
</linearGradient>
<linearGradient id="paint5_linear_705_177" x1="11.7029" y1="13.6235" x2="121.963" y2="131.834" gradientUnits="userSpaceOnUse">
<stop offset="0.205697" stop-color="#89D0FF"/>
<stop offset="0.398413" stop-color="#EBBF9A"/>
<stop offset="0.601546" stop-color="#EB80D3"/>
<stop offset="0.841139" stop-color="#A281FF"/>
</linearGradient>
<linearGradient id="paint6_linear_705_177" x1="17.9519" y1="19.879" x2="115.666" y2="125.57" gradientUnits="userSpaceOnUse">
<stop offset="0.205697" stop-color="#89D0FF"/>
<stop offset="0.398413" stop-color="#EBBF9A"/>
<stop offset="0.601546" stop-color="#A280EB"/>
<stop offset="0.841139" stop-color="#A281FF"/>
</linearGradient>
<clipPath id="clip0_705_177">
<rect width="140" height="140" rx="70" fill="white"/>
</clipPath>
</defs>
</svg>
