<svg width="32" height="32" viewBox="0 0 32 32" fill="none" xmlns="http://www.w3.org/2000/svg">
<path d="M15.9983 31.9965C24.8339 31.9965 31.9965 24.8339 31.9965 15.9983C31.9965 7.16267 24.8339 0 15.9983 0C7.16267 0 0 7.16267 0 15.9983C0 24.8339 7.16267 31.9965 15.9983 31.9965Z" fill="url(#paint0_linear_703_180)"/>
<path d="M10.7288 12.0208C10.601 11.862 10.4069 11.7738 10.1997 11.7738H5.92671C5.89143 11.7738 5.86056 11.7606 5.83411 11.7385C5.81206 11.7165 5.79883 11.69 5.79883 11.6592V8.77965C5.79883 8.74878 5.81206 8.72232 5.83411 8.70027C5.86056 8.67381 5.89143 8.66059 5.92671 8.665H10.4422C11.5799 8.665 12.5633 9.13242 13.3923 10.0629L14.4903 11.4034L12.3516 14.0095L10.7288 12.0208ZM18.6221 10.0496C19.4467 9.12801 20.4345 8.665 21.5854 8.665H26.0877C26.1186 8.66059 26.1494 8.67381 26.1715 8.69145C26.1935 8.7135 26.2024 8.74437 26.1979 8.77965V11.6592C26.1979 11.69 26.1891 11.7165 26.1715 11.7385C26.1494 11.765 26.1186 11.7782 26.0877 11.7738H21.8147C21.6119 11.7694 21.4179 11.862 21.2856 12.0208L18.1371 15.8528L21.2988 19.7112C21.4267 19.8567 21.6163 19.9449 21.8103 19.9405H26.0833C26.1142 19.9361 26.1494 19.9537 26.1671 19.9758C26.1847 20.0022 26.1979 20.0375 26.1935 20.0684V22.9479C26.1935 22.9788 26.1847 23.0052 26.1671 23.0273C26.145 23.0537 26.1142 23.067 26.0833 23.0626H21.5854C20.4345 23.0626 19.4556 22.5951 18.6354 21.6647L16.016 18.4677L13.3967 21.6647C12.5721 22.5951 11.5843 23.0626 10.4334 23.0626H5.92671C5.89584 23.067 5.86056 23.0493 5.84292 23.0273C5.82088 23.0008 5.81206 22.9655 5.81647 22.9347V20.0552C5.81647 20.0243 5.82529 19.9978 5.84292 19.9758C5.86497 19.9493 5.89584 19.9361 5.92671 19.9405H10.1997C10.4025 19.9405 10.5965 19.8479 10.7288 19.6936L13.82 15.9189L18.6221 10.0496Z" fill="#00D1FF"/>
<defs>
<linearGradient id="paint0_linear_703_180" x1="16.0005" y1="-9.2603e-05" x2="16.0005" y2="8.46647" gradientUnits="userSpaceOnUse">
<stop stop-color="#090220"/>
<stop offset="1" stop-color="#170659"/>
</linearGradient>
</defs>
</svg>
