<svg width="32" height="32" viewBox="0 0 32 32" fill="none" xmlns="http://www.w3.org/2000/svg">
<path d="M15.9977 31.9653C24.8156 31.9653 31.964 24.8169 31.964 15.9989C31.964 7.18097 24.8156 0.0325928 15.9977 0.0325928C7.17969 0.0325928 0.031311 7.18097 0.031311 15.9989C0.031311 24.8169 7.17969 31.9653 15.9977 31.9653Z" fill="black"/>
<path d="M7.18979 7.11813C6.51657 7.82501 5.96117 8.41968 5.95556 8.4309C5.94995 8.44773 6.55584 9.0424 7.30199 9.74927C8.04813 10.4618 8.6989 11.0845 8.74378 11.1237L8.82793 11.2023L8.67646 11.4547C7.34687 13.6539 7.07197 16.3019 7.90788 18.7366C8.06496 19.1967 8.33425 19.7857 8.56426 20.1728C8.67646 20.3636 8.72695 20.487 8.71573 20.5094C8.70451 20.5319 8.02569 21.25 7.20662 22.1083C6.38754 22.961 5.71994 23.6735 5.70872 23.6848C5.70311 23.7016 7.99764 25.9176 8.21643 26.0971L8.30059 26.17L9.59652 24.818C10.309 24.0718 10.9766 23.3706 11.0776 23.264L11.2683 23.0733L11.4479 23.1855C12.3623 23.7689 13.4338 24.1728 14.6176 24.386C15.2122 24.4926 16.3455 24.5207 16.9794 24.4421C18.2024 24.3019 19.4142 23.8923 20.4072 23.292L20.6652 23.135L20.9401 23.4042C21.5404 23.9877 23.7845 26.1195 23.8069 26.1308C23.8293 26.142 26.2922 23.5669 26.2866 23.5333C26.2809 23.5165 24.5923 21.8951 23.5601 20.9246L23.2178 20.5992L23.3749 20.3411C24.6933 18.1476 24.9682 15.4884 24.1155 13.0368C23.992 12.6777 23.6162 11.8699 23.3974 11.4996L23.2908 11.3145L24.7326 9.80537C25.5236 8.98069 26.1687 8.29064 26.1631 8.27381C26.1407 8.21771 23.6162 5.83342 23.5825 5.83342C23.5601 5.83342 22.9261 6.47858 22.1687 7.27521C21.4114 8.06624 20.7831 8.71701 20.7662 8.72262C20.755 8.72823 20.6821 8.69457 20.6148 8.64408C20.424 8.51505 19.9415 8.25137 19.6723 8.12795C18.8532 7.75207 18.0902 7.52206 17.2038 7.39303C16.7438 7.32571 15.3637 7.31449 14.9373 7.3762C13.9163 7.52206 13.0804 7.77451 12.2277 8.20088C11.9808 8.31869 11.6947 8.47578 11.5825 8.5431L11.3805 8.66652L11.1505 8.44212C11.0271 8.31869 10.4661 7.79134 9.91068 7.25839C9.35528 6.73104 8.78866 6.19247 8.65402 6.05782L8.40718 5.81659L7.18979 7.11813ZM16.6091 10.7759C17.5011 10.8825 18.2978 11.1855 19.0327 11.7016C19.4086 11.9653 19.9696 12.5263 20.2333 12.9021C21.7312 15.0228 21.445 17.9064 19.5601 19.6735C17.95 21.177 15.6218 21.5136 13.6638 20.515C12.2501 19.7913 11.2515 18.4674 10.9317 16.8797C10.8307 16.3748 10.8307 15.4323 10.9317 14.933C11.0271 14.4393 11.1561 14.0859 11.3974 13.5922C12.3623 11.6511 14.4549 10.5179 16.6091 10.7759Z" fill="white"/>
</svg>
