<svg width="32" height="32" viewBox="0 0 32 32" fill="none" xmlns="http://www.w3.org/2000/svg">
<path d="M16 32C24.8366 32 32 24.8366 32 16C32 7.16344 24.8366 0 16 0C7.16344 0 0 7.16344 0 16C0 24.8366 7.16344 32 16 32Z" fill="url(#paint0_linear_301_2)"/>
<path d="M21.3925 9H11.2344H11.2313H11.231H10.8571C9.6494 9 8.97078 9.98247 8.64922 11.2141L6.04572 19.8609C6.00856 19.9846 5.99189 20.1144 6.0038 20.2431C6.11003 21.3732 7.06377 22.2468 8.20188 22.2468H10.3175H10.3178H23.7971C24.9576 22.2468 25.8985 21.3661 25.9966 20.2293C26.0069 20.1103 25.9935 19.9902 25.9621 19.8748L23.6003 11.2141C23.2495 10.0663 22.619 9 21.3925 9ZM8.41816 20.9736C8.37409 21.0175 8.3124 20.8281 8.26595 20.6506C8.2207 20.4772 8.22355 20.2947 8.27191 20.1223L10.8571 10.8735C11.0583 10.0661 11.332 9.61963 11.969 9.47296H19.9983L8.41816 20.9736ZM23.7971 20.3733C23.7971 21.1675 23.1549 21.8115 22.3629 21.8115H11.2734C11.0869 21.8115 10.995 21.5844 11.1284 21.4539L18.7528 13.9959C19.6208 13.1444 19.9983 11.8008 19.9983 10.7222C19.9983 10.0575 20.223 9.66692 20.4945 9.54008C21.0209 9.75292 21.2455 10.2338 21.3925 10.8735L23.7971 20.3733Z" fill="url(#paint1_linear_301_2)"/>
<defs>
<linearGradient id="paint0_linear_301_2" x1="7" y1="-2.57045e-07" x2="27" y2="29.5" gradientUnits="userSpaceOnUse">
<stop stop-color="#4D5A6A"/>
<stop offset="1" stop-color="#171A23"/>
</linearGradient>
<linearGradient id="paint1_linear_301_2" x1="16" y1="9" x2="16" y2="22.2468" gradientUnits="userSpaceOnUse">
<stop stop-color="#D5E0EE"/>
<stop offset="0.473958" stop-color="#ACADB6"/>
<stop offset="1" stop-color="#C1C2C5"/>
</linearGradient>
</defs>
</svg>
