<svg width="32" height="32" viewBox="0 0 32 32" fill="none" xmlns="http://www.w3.org/2000/svg">
<g clip-path="url(#clip0_705_178)">
<path d="M25.8511 5.48936H6.10645V23.4468H25.8511V5.48936Z" fill="white"/>
<path fill-rule="evenodd" clip-rule="evenodd" d="M31.9682 16C31.9682 24.8249 24.8144 31.9787 15.9895 31.9787C7.16466 31.9787 0.0107422 24.8249 0.0107422 16C0.0107422 7.17519 7.16466 0.0212708 15.9895 0.0212708C24.8144 0.0212708 31.9682 7.17519 31.9682 16ZM11.4616 22.3587H8.36053C7.70891 22.3587 7.38704 22.3587 7.19078 22.2332C6.97881 22.0957 6.84927 21.8681 6.83357 21.6168C6.82178 21.3853 6.98274 21.1026 7.30461 20.5373L14.9614 7.04116C15.2872 6.46806 15.4521 6.1815 15.6601 6.07553C15.8839 5.9617 16.1508 5.9617 16.3746 6.07553C16.5826 6.1815 16.7475 6.46806 17.0733 7.04116L18.6473 9.78891L18.6554 9.80293C19.0073 10.4178 19.1857 10.7295 19.2636 11.0568C19.35 11.414 19.35 11.7908 19.2636 12.148C19.1851 12.4778 19.0085 12.7918 18.6513 13.4159L14.6293 20.5256L14.6189 20.5438C14.2647 21.1637 14.0852 21.4779 13.8364 21.7149C13.5656 21.974 13.2397 22.1623 12.8825 22.2685C12.5567 22.3587 12.1917 22.3587 11.4616 22.3587ZM19.2927 22.3587H23.7361C24.3916 22.3587 24.7214 22.3587 24.9178 22.2294C25.1297 22.0919 25.2631 21.8602 25.275 21.6091C25.2863 21.3851 25.1288 21.1134 24.8203 20.581C24.8097 20.5629 24.799 20.5444 24.7882 20.5257L22.5624 16.7181L22.5371 16.6752C22.2244 16.1463 22.0665 15.8792 21.8637 15.776C21.6401 15.6621 21.3769 15.6621 21.1533 15.776C20.9491 15.882 20.7843 16.1607 20.4585 16.722L18.2407 20.5296L18.2331 20.5427C17.9084 21.1031 17.7461 21.3832 17.7578 21.613C17.7736 21.8642 17.9031 22.0957 18.115 22.2332C18.3074 22.3587 18.6371 22.3587 19.2927 22.3587Z" fill="#E84142"/>
</g>
<defs>
<clipPath id="clip0_705_178">
<rect width="31.9787" height="32" fill="white"/>
</clipPath>
</defs>
</svg>
