<svg width="32" height="32" viewBox="0 0 32 32" fill="none" xmlns="http://www.w3.org/2000/svg">
<path d="M16 32C24.8366 32 32 24.8366 32 16C32 7.16344 24.8366 0 16 0C7.16344 0 0 7.16344 0 16C0 24.8366 7.16344 32 16 32Z" fill="#F0B90B"/>
<path d="M10.3003 8.63527L15.9363 5.35461L21.5723 8.63527L19.5002 9.84724L15.9363 7.77854L12.3723 9.84724L10.3003 8.63527ZM21.5723 12.7726L19.5002 11.5607L15.9363 13.6294L12.3723 11.5607L10.3003 12.7726V15.1966L13.8642 17.2653V21.4026L15.9363 22.6146L18.0084 21.4026V17.2653L21.5723 15.1966V12.7726ZM21.5723 19.3339V16.91L19.5002 18.122V20.5459L21.5723 19.3339ZM23.0435 20.1907L19.4795 22.2594V24.6833L25.1156 21.4026V14.8413L23.0435 16.0533V20.1907ZM20.9714 10.7039L23.0435 11.9159V14.3398L25.1156 13.1279V10.7039L23.0435 9.49201L20.9714 10.7039ZM13.8642 23.137V25.5609L15.9363 26.7729L18.0084 25.5609V23.137L15.9363 24.349L13.8642 23.137ZM10.3003 19.3339L12.3723 20.5459V18.122L10.3003 16.91V19.3339ZM13.8642 10.7039L15.9363 11.9159L18.0084 10.7039L15.9363 9.49201L13.8642 10.7039ZM8.82903 11.9159L10.9011 10.7039L8.82903 9.49201L6.75696 10.7039V13.1279L8.82903 14.3398V11.9159ZM8.82903 16.0533L6.75696 14.8413V21.4026L12.393 24.6833V22.2594L8.82903 20.1907V16.0533Z" fill="white"/>
</svg>
