<svg width="32" height="32" viewBox="0 0 32 32" fill="none" xmlns="http://www.w3.org/2000/svg">
<circle cx="16" cy="16" r="16" fill="#F3F3F3"/>
<g clip-path="url(#clip0_1_524)">
<path d="M22.0448 11.6985C21.5851 11.4358 20.994 11.4358 20.4687 11.6985L16.791 13.8657L14.2955 15.2448L10.6836 17.4119C10.2239 17.6746 9.63284 17.6746 9.10746 17.4119L6.28358 15.7045C5.82388 15.4418 5.49552 14.9164 5.49552 14.3254V11.0418C5.49552 10.5164 5.75821 9.99105 6.28358 9.66269L9.10746 8.0209C9.56716 7.75821 10.1582 7.75821 10.6836 8.0209L13.5075 9.72836C13.9672 9.99105 14.2955 10.5164 14.2955 11.1075V13.2746L16.791 11.8299V9.59702C16.791 9.07164 16.5284 8.54627 16.003 8.21791L10.7493 5.13134C10.2896 4.86866 9.69851 4.86866 9.17313 5.13134L3.78806 8.28358C3.26269 8.54627 3 9.07164 3 9.59702V15.7701C3 16.2955 3.26269 16.8209 3.78806 17.1493L9.10746 20.2358C9.56716 20.4985 10.1582 20.4985 10.6836 20.2358L14.2955 18.1343L16.791 16.6896L20.403 14.5881C20.8627 14.3254 21.4537 14.3254 21.9791 14.5881L24.803 16.2299C25.2627 16.4925 25.591 17.0179 25.591 17.609V20.8925C25.591 21.4179 25.3284 21.9433 24.803 22.2716L22.0448 23.9134C21.5851 24.1761 20.994 24.1761 20.4687 23.9134L17.6448 22.2716C17.1851 22.009 16.8567 21.4836 16.8567 20.8925V18.791L14.3612 20.2358V22.403C14.3612 22.9284 14.6239 23.4537 15.1493 23.7821L20.4687 26.8687C20.9284 27.1313 21.5194 27.1313 22.0448 26.8687L27.3642 23.7821C27.8239 23.5194 28.1522 22.994 28.1522 22.403V16.1642C28.1522 15.6388 27.8896 15.1134 27.3642 14.7851L22.0448 11.6985Z" fill="#8247E5"/>
</g>
<defs>
<clipPath id="clip0_1_524">
<rect width="25.2179" height="22" fill="white" transform="translate(3 5)"/>
</clipPath>
</defs>
</svg>
