<svg width="32" height="32" viewBox="0 0 32 32" fill="none" xmlns="http://www.w3.org/2000/svg">
<circle cx="16" cy="16" r="16" fill="white"/>
<path d="M22.5038 9.63986C23.225 9.63986 23.8095 9.05634 23.8095 8.33654C23.8095 7.61673 23.225 7.03322 22.5038 7.03322C21.7828 7.03322 21.1982 7.61673 21.1982 8.33654C21.1982 9.05634 21.7828 9.63986 22.5038 9.63986Z" fill="url(#paint0_linear_711_245)"/>
<path d="M16.8629 7.60664C17.584 7.60664 18.1686 7.02312 18.1686 6.30332C18.1686 5.58351 17.584 5 16.8629 5C16.1418 5 15.5572 5.58351 15.5572 6.30332C15.5572 7.02312 16.1418 7.60664 16.8629 7.60664Z" fill="url(#paint1_linear_711_245)"/>
<path d="M11.1179 9.32699C11.839 9.32699 12.4235 8.74347 12.4235 8.02367C12.4235 7.30387 11.839 6.72035 11.1179 6.72035C10.3968 6.72035 9.81221 7.30387 9.81221 8.02367C9.81221 8.74347 10.3968 9.32699 11.1179 9.32699Z" fill="url(#paint2_linear_711_245)"/>
<path d="M7.4622 14.1232C8.18331 14.1232 8.76789 13.5397 8.76789 12.8199C8.76789 12.1001 8.18331 11.5166 7.4622 11.5166C6.7411 11.5166 6.15653 12.1001 6.15653 12.8199C6.15653 13.5397 6.7411 14.1232 7.4622 14.1232Z" fill="url(#paint3_linear_711_245)"/>
<path d="M7.30568 20.0142C8.02678 20.0142 8.61136 19.4307 8.61136 18.7109C8.61136 17.9911 8.02678 17.4076 7.30568 17.4076C6.58457 17.4076 6 17.9911 6 18.7109C6 19.4307 6.58457 20.0142 7.30568 20.0142Z" fill="url(#paint4_linear_711_245)"/>
<path d="M10.7005 25.019C11.4216 25.019 12.0062 24.4355 12.0062 23.7156C12.0062 22.9959 11.4216 22.4124 10.7005 22.4124C9.97937 22.4124 9.39479 22.9959 9.39479 23.7156C9.39479 24.4355 9.97937 25.019 10.7005 25.019Z" fill="url(#paint5_linear_711_245)"/>
<path d="M16.3409 27C17.062 27 17.6466 26.4165 17.6466 25.6967C17.6466 24.9769 17.062 24.3934 16.3409 24.3934C15.6198 24.3934 15.0352 24.9769 15.0352 25.6967C15.0352 26.4165 15.6198 27 16.3409 27Z" fill="url(#paint6_linear_711_245)"/>
<path d="M22.0857 25.3838C22.8068 25.3838 23.3914 24.8003 23.3914 24.0805C23.3914 23.3607 22.8068 22.7772 22.0857 22.7772C21.3646 22.7772 20.78 23.3607 20.78 24.0805C20.78 24.8003 21.3646 25.3838 22.0857 25.3838Z" fill="url(#paint7_linear_711_245)"/>
<path d="M20.7801 11.9858C21.1262 11.9858 21.4069 11.7057 21.4069 11.3602C21.4069 11.0147 21.1262 10.7346 20.7801 10.7346C20.434 10.7346 20.1534 11.0147 20.1534 11.3602C20.1534 11.7057 20.434 11.9858 20.7801 11.9858Z" fill="url(#paint8_linear_711_245)"/>
<path d="M18.1687 10.6304C18.5148 10.6304 18.7954 10.3503 18.7954 10.0048C18.7954 9.65927 18.5148 9.37918 18.1687 9.37918C17.8226 9.37918 17.542 9.65927 17.542 10.0048C17.542 10.3503 17.8226 10.6304 18.1687 10.6304Z" fill="url(#paint9_linear_711_245)"/>
<path d="M15.2962 10.5261C15.6423 10.5261 15.9229 10.246 15.9229 9.90048C15.9229 9.55497 15.6423 9.27489 15.2962 9.27489C14.9501 9.27489 14.6695 9.55497 14.6695 9.90048C14.6695 10.246 14.9501 10.5261 15.2962 10.5261Z" fill="url(#paint10_linear_711_245)"/>
<path d="M12.6848 11.8294C13.031 11.8294 13.3116 11.5493 13.3116 11.2038C13.3116 10.8583 13.031 10.5782 12.6848 10.5782C12.3387 10.5782 12.0581 10.8583 12.0581 11.2038C12.0581 11.5493 12.3387 11.8294 12.6848 11.8294Z" fill="url(#paint11_linear_711_245)"/>
<path d="M10.8571 14.1233C11.2032 14.1233 11.4838 13.8432 11.4838 13.4977C11.4838 13.1522 11.2032 12.8721 10.8571 12.8721C10.511 12.8721 10.2304 13.1522 10.2304 13.4977C10.2304 13.8432 10.511 14.1233 10.8571 14.1233Z" fill="url(#paint12_linear_711_245)"/>
<path d="M10.387 16.9906C10.7331 16.9906 11.0137 16.7105 11.0137 16.365C11.0137 16.0195 10.7331 15.7394 10.387 15.7394C10.0409 15.7394 9.76028 16.0195 9.76028 16.365C9.76028 16.7105 10.0409 16.9906 10.387 16.9906Z" fill="url(#paint13_linear_711_245)"/>
<path d="M11.2748 19.7536C11.6209 19.7536 11.9015 19.4735 11.9015 19.128C11.9015 18.7825 11.6209 18.5024 11.2748 18.5024C10.9286 18.5024 10.6481 18.7825 10.6481 19.128C10.6481 19.4735 10.9286 19.7536 11.2748 19.7536Z" fill="url(#paint14_linear_711_245)"/>
<path d="M13.312 21.891C13.6581 21.891 13.9387 21.6109 13.9387 21.2654C13.9387 20.9199 13.6581 20.6398 13.312 20.6398C12.9658 20.6398 12.6852 20.9199 12.6852 21.2654C12.6852 21.6109 12.9658 21.891 13.312 21.891Z" fill="url(#paint15_linear_711_245)"/>
<path d="M16.0796 22.7773C16.4258 22.7773 16.7063 22.4972 16.7063 22.1517C16.7063 21.8062 16.4258 21.5261 16.0796 21.5261C15.7335 21.5261 15.4529 21.8062 15.4529 22.1517C15.4529 22.4972 15.7335 22.7773 16.0796 22.7773Z" fill="url(#paint16_linear_711_245)"/>
<path d="M18.9521 22.3602C19.2982 22.3602 19.5788 22.0802 19.5788 21.7347C19.5788 21.3892 19.2982 21.1091 18.9521 21.1091C18.606 21.1091 18.3254 21.3892 18.3254 21.7347C18.3254 22.0802 18.606 22.3602 18.9521 22.3602Z" fill="url(#paint17_linear_711_245)"/>
<path d="M19.0566 13.5497C19.2873 13.5497 19.4744 13.363 19.4744 13.1326C19.4744 12.9023 19.2873 12.7156 19.0566 12.7156C18.8258 12.7156 18.6387 12.9023 18.6387 13.1326C18.6387 13.363 18.8258 13.5497 19.0566 13.5497Z" fill="url(#paint18_linear_711_245)"/>
<path d="M17.4378 12.7677C17.6686 12.7677 17.8556 12.581 17.8556 12.3507C17.8556 12.1203 17.6686 11.9336 17.4378 11.9336C17.207 11.9336 17.02 12.1203 17.02 12.3507C17.02 12.581 17.207 12.7677 17.4378 12.7677Z" fill="url(#paint19_linear_711_245)"/>
<path d="M15.6617 12.7677C15.8925 12.7677 16.0796 12.581 16.0796 12.3506C16.0796 12.1203 15.8925 11.9336 15.6617 11.9336C15.431 11.9336 15.2439 12.1203 15.2439 12.3506C15.2439 12.581 15.431 12.7677 15.6617 12.7677Z" fill="url(#paint20_linear_711_245)"/>
<path d="M14.043 13.6018C14.2738 13.6018 14.4608 13.4151 14.4608 13.1847C14.4608 12.9544 14.2738 12.7677 14.043 12.7677C13.8123 12.7677 13.6252 12.9544 13.6252 13.1847C13.6252 13.4151 13.8123 13.6018 14.043 13.6018Z" fill="url(#paint21_linear_711_245)"/>
<path d="M13.0504 15.1137C13.2811 15.1137 13.4682 14.927 13.4682 14.6966C13.4682 14.4663 13.2811 14.2796 13.0504 14.2796C12.8196 14.2796 12.6325 14.4663 12.6325 14.6966C12.6325 14.927 12.8196 15.1137 13.0504 15.1137Z" fill="url(#paint22_linear_711_245)"/>
<path d="M12.8416 16.8862C13.0724 16.8862 13.2595 16.6995 13.2595 16.4692C13.2595 16.2388 13.0724 16.0521 12.8416 16.0521C12.6109 16.0521 12.4238 16.2388 12.4238 16.4692C12.4238 16.6995 12.6109 16.8862 12.8416 16.8862Z" fill="url(#paint23_linear_711_245)"/>
<path d="M13.4683 18.6066C13.699 18.6066 13.8861 18.4199 13.8861 18.1895C13.8861 17.9592 13.699 17.7725 13.4683 17.7725C13.2375 17.7725 13.0505 17.9592 13.0505 18.1895C13.0505 18.4199 13.2375 18.6066 13.4683 18.6066Z" fill="url(#paint24_linear_711_245)"/>
<path d="M14.8783 19.7535C15.109 19.7535 15.2961 19.5669 15.2961 19.3365C15.2961 19.1062 15.109 18.9194 14.8783 18.9194C14.6476 18.9194 14.4605 19.1062 14.4605 19.3365C14.4605 19.5669 14.6476 19.7535 14.8783 19.7535Z" fill="url(#paint25_linear_711_245)"/>
<path d="M16.6019 20.2227C16.8327 20.2227 17.0198 20.036 17.0198 19.8057C17.0198 19.5753 16.8327 19.3886 16.6019 19.3886C16.3712 19.3886 16.1841 19.5753 16.1841 19.8057C16.1841 20.036 16.3712 20.2227 16.6019 20.2227Z" fill="url(#paint26_linear_711_245)"/>
<path d="M18.3778 19.7535C18.6085 19.7535 18.7956 19.5669 18.7956 19.3365C18.7956 19.1062 18.6085 18.9194 18.3778 18.9194C18.147 18.9194 17.9599 19.1062 17.9599 19.3365C17.9599 19.5669 18.147 19.7535 18.3778 19.7535Z" fill="url(#paint27_linear_711_245)"/>
<defs>
<linearGradient id="paint0_linear_711_245" x1="23" y1="19" x2="7.5" y2="19" gradientUnits="userSpaceOnUse">
<stop stop-color="#9455B9"/>
<stop stop-color="#9555B9"/>
<stop offset="0.536458" stop-color="#BC5EA4"/>
<stop offset="1" stop-color="#DE6592"/>
</linearGradient>
<linearGradient id="paint1_linear_711_245" x1="23" y1="19" x2="7.5" y2="19" gradientUnits="userSpaceOnUse">
<stop stop-color="#9455B9"/>
<stop stop-color="#9555B9"/>
<stop offset="0.536458" stop-color="#BC5EA4"/>
<stop offset="1" stop-color="#DE6592"/>
</linearGradient>
<linearGradient id="paint2_linear_711_245" x1="23" y1="19" x2="7.5" y2="19" gradientUnits="userSpaceOnUse">
<stop stop-color="#9455B9"/>
<stop stop-color="#9555B9"/>
<stop offset="0.536458" stop-color="#BC5EA4"/>
<stop offset="1" stop-color="#DE6592"/>
</linearGradient>
<linearGradient id="paint3_linear_711_245" x1="23" y1="19" x2="7.5" y2="19" gradientUnits="userSpaceOnUse">
<stop stop-color="#9455B9"/>
<stop stop-color="#9555B9"/>
<stop offset="0.536458" stop-color="#BC5EA4"/>
<stop offset="1" stop-color="#DE6592"/>
</linearGradient>
<linearGradient id="paint4_linear_711_245" x1="23" y1="19" x2="7.5" y2="19" gradientUnits="userSpaceOnUse">
<stop stop-color="#9455B9"/>
<stop stop-color="#9555B9"/>
<stop offset="0.536458" stop-color="#BC5EA4"/>
<stop offset="1" stop-color="#DE6592"/>
</linearGradient>
<linearGradient id="paint5_linear_711_245" x1="23" y1="19" x2="7.5" y2="19" gradientUnits="userSpaceOnUse">
<stop stop-color="#9455B9"/>
<stop stop-color="#9555B9"/>
<stop offset="0.536458" stop-color="#BC5EA4"/>
<stop offset="1" stop-color="#DE6592"/>
</linearGradient>
<linearGradient id="paint6_linear_711_245" x1="23" y1="19" x2="7.5" y2="19" gradientUnits="userSpaceOnUse">
<stop stop-color="#9455B9"/>
<stop stop-color="#9555B9"/>
<stop offset="0.536458" stop-color="#BC5EA4"/>
<stop offset="1" stop-color="#DE6592"/>
</linearGradient>
<linearGradient id="paint7_linear_711_245" x1="23" y1="19" x2="7.5" y2="19" gradientUnits="userSpaceOnUse">
<stop stop-color="#9455B9"/>
<stop stop-color="#9555B9"/>
<stop offset="0.536458" stop-color="#BC5EA4"/>
<stop offset="1" stop-color="#DE6592"/>
</linearGradient>
<linearGradient id="paint8_linear_711_245" x1="23" y1="19" x2="7.5" y2="19" gradientUnits="userSpaceOnUse">
<stop stop-color="#9455B9"/>
<stop stop-color="#9555B9"/>
<stop offset="0.536458" stop-color="#BC5EA4"/>
<stop offset="1" stop-color="#DE6592"/>
</linearGradient>
<linearGradient id="paint9_linear_711_245" x1="23" y1="19" x2="7.5" y2="19" gradientUnits="userSpaceOnUse">
<stop stop-color="#9455B9"/>
<stop stop-color="#9555B9"/>
<stop offset="0.536458" stop-color="#BC5EA4"/>
<stop offset="1" stop-color="#DE6592"/>
</linearGradient>
<linearGradient id="paint10_linear_711_245" x1="23" y1="19" x2="7.5" y2="19" gradientUnits="userSpaceOnUse">
<stop stop-color="#9455B9"/>
<stop stop-color="#9555B9"/>
<stop offset="0.536458" stop-color="#BC5EA4"/>
<stop offset="1" stop-color="#DE6592"/>
</linearGradient>
<linearGradient id="paint11_linear_711_245" x1="23" y1="19" x2="7.5" y2="19" gradientUnits="userSpaceOnUse">
<stop stop-color="#9455B9"/>
<stop stop-color="#9555B9"/>
<stop offset="0.536458" stop-color="#BC5EA4"/>
<stop offset="1" stop-color="#DE6592"/>
</linearGradient>
<linearGradient id="paint12_linear_711_245" x1="23" y1="19" x2="7.5" y2="19" gradientUnits="userSpaceOnUse">
<stop stop-color="#9455B9"/>
<stop stop-color="#9555B9"/>
<stop offset="0.536458" stop-color="#BC5EA4"/>
<stop offset="1" stop-color="#DE6592"/>
</linearGradient>
<linearGradient id="paint13_linear_711_245" x1="23" y1="19" x2="7.5" y2="19" gradientUnits="userSpaceOnUse">
<stop stop-color="#9455B9"/>
<stop stop-color="#9555B9"/>
<stop offset="0.536458" stop-color="#BC5EA4"/>
<stop offset="1" stop-color="#DE6592"/>
</linearGradient>
<linearGradient id="paint14_linear_711_245" x1="23" y1="19" x2="7.5" y2="19" gradientUnits="userSpaceOnUse">
<stop stop-color="#9455B9"/>
<stop stop-color="#9555B9"/>
<stop offset="0.536458" stop-color="#BC5EA4"/>
<stop offset="1" stop-color="#DE6592"/>
</linearGradient>
<linearGradient id="paint15_linear_711_245" x1="23" y1="19" x2="7.5" y2="19" gradientUnits="userSpaceOnUse">
<stop stop-color="#9455B9"/>
<stop stop-color="#9555B9"/>
<stop offset="0.536458" stop-color="#BC5EA4"/>
<stop offset="1" stop-color="#DE6592"/>
</linearGradient>
<linearGradient id="paint16_linear_711_245" x1="23" y1="19" x2="7.5" y2="19" gradientUnits="userSpaceOnUse">
<stop stop-color="#9455B9"/>
<stop stop-color="#9555B9"/>
<stop offset="0.536458" stop-color="#BC5EA4"/>
<stop offset="1" stop-color="#DE6592"/>
</linearGradient>
<linearGradient id="paint17_linear_711_245" x1="23" y1="19" x2="7.5" y2="19" gradientUnits="userSpaceOnUse">
<stop stop-color="#9455B9"/>
<stop stop-color="#9555B9"/>
<stop offset="0.536458" stop-color="#BC5EA4"/>
<stop offset="1" stop-color="#DE6592"/>
</linearGradient>
<linearGradient id="paint18_linear_711_245" x1="23" y1="19" x2="7.5" y2="19" gradientUnits="userSpaceOnUse">
<stop stop-color="#9455B9"/>
<stop stop-color="#9555B9"/>
<stop offset="0.536458" stop-color="#BC5EA4"/>
<stop offset="1" stop-color="#DE6592"/>
</linearGradient>
<linearGradient id="paint19_linear_711_245" x1="23" y1="19" x2="7.5" y2="19" gradientUnits="userSpaceOnUse">
<stop stop-color="#9455B9"/>
<stop stop-color="#9555B9"/>
<stop offset="0.536458" stop-color="#BC5EA4"/>
<stop offset="1" stop-color="#DE6592"/>
</linearGradient>
<linearGradient id="paint20_linear_711_245" x1="23" y1="19" x2="7.5" y2="19" gradientUnits="userSpaceOnUse">
<stop stop-color="#9455B9"/>
<stop stop-color="#9555B9"/>
<stop offset="0.536458" stop-color="#BC5EA4"/>
<stop offset="1" stop-color="#DE6592"/>
</linearGradient>
<linearGradient id="paint21_linear_711_245" x1="23" y1="19" x2="7.5" y2="19" gradientUnits="userSpaceOnUse">
<stop stop-color="#9455B9"/>
<stop stop-color="#9555B9"/>
<stop offset="0.536458" stop-color="#BC5EA4"/>
<stop offset="1" stop-color="#DE6592"/>
</linearGradient>
<linearGradient id="paint22_linear_711_245" x1="23" y1="19" x2="7.5" y2="19" gradientUnits="userSpaceOnUse">
<stop stop-color="#9455B9"/>
<stop stop-color="#9555B9"/>
<stop offset="0.536458" stop-color="#BC5EA4"/>
<stop offset="1" stop-color="#DE6592"/>
</linearGradient>
<linearGradient id="paint23_linear_711_245" x1="23" y1="19" x2="7.5" y2="19" gradientUnits="userSpaceOnUse">
<stop stop-color="#9455B9"/>
<stop stop-color="#9555B9"/>
<stop offset="0.536458" stop-color="#BC5EA4"/>
<stop offset="1" stop-color="#DE6592"/>
</linearGradient>
<linearGradient id="paint24_linear_711_245" x1="23" y1="19" x2="7.5" y2="19" gradientUnits="userSpaceOnUse">
<stop stop-color="#9455B9"/>
<stop stop-color="#9555B9"/>
<stop offset="0.536458" stop-color="#BC5EA4"/>
<stop offset="1" stop-color="#DE6592"/>
</linearGradient>
<linearGradient id="paint25_linear_711_245" x1="23" y1="19" x2="7.5" y2="19" gradientUnits="userSpaceOnUse">
<stop stop-color="#9455B9"/>
<stop stop-color="#9555B9"/>
<stop offset="0.536458" stop-color="#BC5EA4"/>
<stop offset="1" stop-color="#DE6592"/>
</linearGradient>
<linearGradient id="paint26_linear_711_245" x1="23" y1="19" x2="7.5" y2="19" gradientUnits="userSpaceOnUse">
<stop stop-color="#9455B9"/>
<stop stop-color="#9555B9"/>
<stop offset="0.536458" stop-color="#BC5EA4"/>
<stop offset="1" stop-color="#DE6592"/>
</linearGradient>
<linearGradient id="paint27_linear_711_245" x1="23" y1="19" x2="7.5" y2="19" gradientUnits="userSpaceOnUse">
<stop stop-color="#9455B9"/>
<stop stop-color="#9555B9"/>
<stop offset="0.536458" stop-color="#BC5EA4"/>
<stop offset="1" stop-color="#DE6592"/>
</linearGradient>
</defs>
</svg>
