<svg width="32" height="32" viewBox="0 0 32 32" fill="none" xmlns="http://www.w3.org/2000/svg">
<path d="M0 16C0 24.8366 7.16344 32 16 32C24.8366 32 32 24.8366 32 16C32 7.16344 24.8366 0 16 0C7.16344 0 0 7.16344 0 16Z" fill="white"/>
<path d="M16.1213 31.5206C24.7214 31.5206 31.6932 24.5485 31.6932 15.9479C31.6932 7.34728 24.7214 0.375122 16.1213 0.375122C7.52112 0.375122 0.549316 7.34728 0.549316 15.9479C0.549316 24.5485 7.52112 31.5206 16.1213 31.5206Z" fill="#FFE8E8"/>
<path d="M23.1599 18.9896C21.2077 22.4813 17.4707 22.9621 13.5904 21.3399C9.7102 19.7175 7.697 15.9293 8.95508 12.9229C10.2132 9.91657 14.2661 8.83068 18.1464 10.453C22.0265 12.0753 24.418 15.9833 23.1599 18.9896Z" fill="url(#paint0_radial_911_220)"/>
<path d="M16 18.61C17.4413 18.61 18.6098 17.4415 18.6098 16C18.6098 14.5586 17.4413 13.39 16 13.39C14.5586 13.39 13.3901 14.5586 13.3901 16C13.3901 17.4415 14.5586 18.61 16 18.61Z" fill="#383838"/>
<path d="M17.3571 22.2814C15.6346 22.2814 13.8077 21.7769 12.1896 20.7329C10.2235 19.4626 8.90122 17.6356 8.60544 15.7043C8.37925 14.2775 8.70983 12.9551 9.57978 11.8764C11.685 9.26641 16.261 9.00541 19.8104 11.2848C21.7764 12.555 23.0987 14.3819 23.3945 16.3133C23.6207 17.7401 23.2901 19.0625 22.4201 20.1413C21.2892 21.5506 19.4101 22.2814 17.3571 22.2814ZM14.6429 9.77101C12.6246 9.77101 10.7629 10.4844 9.63197 11.8938C8.77943 12.9551 8.43145 14.2775 8.67503 15.6869C8.98822 17.6009 10.2757 19.4105 12.2418 20.6806C15.7564 22.9426 20.3148 22.6816 22.3853 20.1065C23.2379 19.045 23.5859 17.7226 23.3422 16.3133C23.0291 14.3994 21.7415 12.5898 19.7755 11.3196C18.1748 10.2756 16.3479 9.77101 14.6429 9.77101Z" fill="#E94E4E"/>
<path fill-rule="evenodd" clip-rule="evenodd" d="M12.142 20.8063C10.1602 19.526 8.81931 17.6793 8.51882 15.7178C8.2891 14.2683 8.62507 12.9208 9.51149 11.8215C11.6544 9.16484 16.2851 8.91684 19.8578 11.2112C21.8397 12.4915 23.1807 14.3383 23.4812 16.2999C23.7109 17.7493 23.375 19.0968 22.4887 20.196L12.142 20.8063ZM22.4202 20.1413C22.4213 20.1399 22.4224 20.1384 22.4235 20.137C23.291 19.059 23.6204 17.7383 23.3945 16.3133C23.3941 16.3105 23.3936 16.3078 23.3933 16.305C23.3933 16.3049 23.3933 16.3051 23.3933 16.305C23.0949 14.3769 21.7735 12.553 19.8104 11.2848C19.8075 11.283 19.8048 11.2812 19.8019 11.2794C19.8019 11.2793 19.802 11.2794 19.8019 11.2794C18.1845 10.243 16.3546 9.73359 14.6429 9.73315C12.6066 9.73262 10.7375 10.4523 9.59178 11.8616C9.59178 11.8616 9.59178 11.8616 9.59178 11.8616C9.58778 11.8665 9.58378 11.8714 9.57981 11.8764C8.71106 12.9536 8.3802 14.2739 8.60453 15.6984C8.60457 15.6986 8.60451 15.6981 8.60453 15.6984C8.60481 15.7001 8.6052 15.7025 8.60547 15.7043C8.90125 17.6356 10.2236 19.4626 12.1896 20.7329C12.1939 20.7356 12.1983 20.7384 12.2026 20.7411C12.2026 20.7413 12.2025 20.7411 12.2026 20.7411C13.8175 21.7795 15.6393 22.2814 17.3571 22.2814C19.4102 22.2814 21.2892 21.5506 22.4202 20.1413ZM22.4887 20.196C21.3368 21.6311 19.4292 22.3689 17.3571 22.3689C15.6179 22.3689 13.7744 21.8595 12.142 20.8063L22.4887 20.196ZM12.2289 20.6723C10.2724 19.404 8.99053 17.6009 8.67615 15.6935C8.67614 15.6934 8.67618 15.6936 8.67615 15.6935C8.67581 15.6915 8.67541 15.689 8.67506 15.6869C8.43263 14.2841 8.77622 12.9675 9.62006 11.9087C9.62403 11.9037 9.62802 11.8987 9.632 11.8938C10.7629 10.4844 12.6247 9.771 14.6429 9.771C16.3479 9.771 18.1749 10.2756 19.7756 11.3196C19.7785 11.3214 19.7813 11.3233 19.7841 11.3251C19.7842 11.3252 19.7841 11.3251 19.7841 11.3251C21.7453 12.595 23.0296 14.4021 23.3423 16.3133C23.3428 16.3159 23.3433 16.3185 23.3437 16.321C23.3437 16.3211 23.3437 16.321 23.3437 16.321C23.5845 17.7274 23.2363 19.0471 22.3853 20.1065C22.3842 20.1079 22.3832 20.1093 22.3821 20.1106C22.382 20.1106 22.3821 20.1106 22.3821 20.1106C21.2536 21.5108 19.3889 22.2255 17.3571 22.221C15.6578 22.2171 13.8417 21.7103 12.2418 20.6806C12.2375 20.6779 12.2332 20.675 12.2289 20.6723C12.2289 20.6723 12.2289 20.6723 12.2289 20.6723ZM22.3169 20.0518C21.301 21.3154 19.6696 22.0168 17.8502 22.1201C16.0313 22.2235 14.0313 21.7283 12.2895 20.6073C10.3398 19.3475 9.07003 17.5576 8.76161 15.6728C8.52223 14.2878 8.86384 12.99 9.70043 11.9485C10.8105 10.5651 12.6436 9.8585 14.6429 9.8585C16.3312 9.8585 18.1413 10.3583 19.7276 11.3928C21.6773 12.6525 22.9474 14.4426 23.2558 16.3274C23.4952 17.7125 23.1535 19.0103 22.3169 20.0518Z" fill="#E94E4E"/>
<path fill-rule="evenodd" clip-rule="evenodd" d="M17.6329 9.3339C16.9775 9.17867 16.3232 9.0927 15.6699 9.0927C12.3106 9.0927 9.34107 11.142 8.58668 14.2111L8.58659 14.2115C8.17504 15.8578 8.46607 17.6086 9.39403 19.121C10.4601 20.8576 12.2669 22.1491 14.3507 22.6485C18.4356 23.631 22.4882 21.44 23.3968 17.7711V17.7709C23.8084 16.1246 23.5174 14.3738 22.5894 12.8614C21.5234 11.1248 19.7166 9.83335 17.6329 9.3339ZM8.38088 14.0854C9.34875 10.3129 13.5188 8.09904 17.691 9.09407C19.8528 9.60384 21.7173 10.9399 22.8088 12.7355V12.7356C23.7597 14.3029 24.0601 16.1188 23.6367 17.8303C22.86 21.0251 19.7746 23.1343 16.331 23.1343C15.6638 23.1343 14.9954 23.0641 14.3092 22.8881C12.1476 22.3783 10.2834 21.0424 9.19208 19.2469L9.19205 19.2468C8.2612 17.7125 7.95369 15.94 8.33834 14.2604H8.33757L8.3583 14.1759L8.38088 14.0854ZM8.36416 14.152C8.36617 14.1439 8.36818 14.1358 8.37021 14.1276L8.38065 14.0854H8.38088" fill="#E94E4E"/>
<path fill-rule="evenodd" clip-rule="evenodd" d="M14.9219 7.98563C15.2832 7.93403 15.6603 7.89987 16.0361 7.89987C17.5773 7.89987 19.0848 8.3964 20.3704 9.35643L20.3707 9.3566C22.1023 10.6425 23.2185 12.581 23.5277 14.8149C24.1292 19.2323 21.2409 23.3638 17.0976 24.0146C15.1791 24.3058 13.2434 23.8263 11.6493 22.6435C9.91774 21.3576 8.80162 19.4193 8.49229 17.1854C7.89082 12.7681 10.7788 8.63669 14.9219 7.98563ZM14.8528 7.71105C16.8498 7.39297 18.8636 7.90593 20.5223 9.12353L20.5229 9.12402C22.3229 10.4653 23.4863 12.4764 23.8033 14.7843V14.7845C24.4195 19.3449 21.4448 23.6349 17.1322 24.3065L17.1301 24.3069C16.7441 24.3595 16.356 24.3949 15.9666 24.3949C14.3586 24.3949 12.8041 23.8823 11.4628 22.8939L11.4623 22.8935C9.66232 21.5523 8.49899 19.5411 8.18191 17.2334L8.18187 17.2331C7.56564 12.6728 10.5404 8.3828 14.8528 7.71105Z" fill="#E94E4E"/>
<path fill-rule="evenodd" clip-rule="evenodd" d="M17.0303 6.70784C15.2387 6.24715 13.4147 6.57116 11.8964 7.62891L11.8962 7.62905C8.32293 10.1082 7.24235 15.8812 9.55312 20.503L9.55329 20.5034C10.7755 22.9652 12.7675 24.6941 15.0054 25.275C16.797 25.7356 18.621 25.4116 20.1392 24.3539C23.6953 21.8748 24.776 16.119 22.4823 11.4795C21.2601 9.01761 19.2682 7.28872 17.0303 6.70784ZM11.7007 7.37177C13.297 6.25445 15.2136 5.91745 17.0928 6.39612L17.093 6.3962C19.4313 6.9985 21.4934 8.80194 22.7418 11.334C25.0933 16.0726 24.0168 22.0262 20.3006 24.6108C19.1827 25.4091 17.887 25.7994 16.5745 25.7994C16.0246 25.7994 15.4573 25.7285 14.9077 25.5866C12.5695 24.9842 10.5074 23.1809 9.25903 20.6489C6.90746 15.91 7.98405 9.95602 11.7007 7.37177Z" fill="#E94E4E"/>
<path fill-rule="evenodd" clip-rule="evenodd" d="M23.036 23.4448C24.1981 21.3254 24.4683 18.5658 23.951 15.8148C23.4337 13.0649 22.1322 10.3388 20.1709 8.29138L20.1708 8.29123C18.3291 6.3634 16.1564 5.31016 14.1204 5.31016C13.8661 5.31016 13.6118 5.32713 13.3574 5.36105L13.3569 5.36111C11.532 5.59769 9.9698 6.72965 8.96291 8.5557C7.80078 10.6751 7.53065 13.4348 8.04804 16.1856C8.56521 18.9354 9.8667 21.6615 11.8279 23.7089C13.9109 25.8783 16.3892 26.9273 18.6421 26.6394L23.036 23.4448ZM23.036 23.4448C22.0292 25.2708 20.4671 26.4026 18.6424 26.6393L23.036 23.4448ZM13.318 4.97663C15.7281 4.65545 18.3306 5.78165 20.4581 8.0147C22.4723 10.1257 23.8066 12.9239 24.3378 15.7419C24.8686 18.5589 24.5995 21.4105 23.3867 23.6236C22.3402 25.5394 20.6657 26.7559 18.6983 27.0064C18.4309 27.042 18.1635 27.0599 17.8959 27.0599C15.722 27.0599 13.4578 25.956 11.5584 23.9684H11.5583C9.54409 21.8573 8.20973 19.0593 7.67862 16.2412C7.14773 13.4242 7.41692 10.5725 8.62965 8.35936C9.67615 6.44374 11.3505 5.2272 13.318 4.97663Z" fill="#E94E4E"/>
<path fill-rule="evenodd" clip-rule="evenodd" d="M9.8018 5.19244C7.98899 6.16622 6.84531 8.13946 6.60537 10.7956C6.3569 13.6237 7.1926 16.7774 8.75027 19.5844C10.3077 22.391 12.5781 24.8349 15.1792 26.2514C17.7724 27.6596 20.2652 27.8327 22.1984 26.8075C24.011 25.8337 25.1547 23.8606 25.3947 21.2046C25.6433 18.3764 24.8076 15.2226 23.2499 12.4156C21.6924 9.60894 19.422 7.16509 16.8208 5.74854L16.8199 5.74807C15.3277 4.92469 13.8777 4.53454 12.5376 4.53454C11.5553 4.53454 10.6271 4.7546 9.8018 5.19244ZM9.58314 4.79736C11.6704 3.66376 14.3285 3.89212 17.0063 5.35435C19.6943 6.81746 22.0216 9.32815 23.6133 12.196C25.2047 15.0635 26.0698 18.3041 25.8138 21.2351V21.2354C25.5665 24.008 24.3615 26.1229 22.4002 27.1849C21.5189 27.6705 20.5323 27.9024 19.4625 27.9024C18.053 27.9024 16.5105 27.4746 14.9762 26.628C12.2882 25.1649 9.96112 22.6542 8.36947 19.7866C6.77795 16.9191 5.91296 13.6785 6.16896 10.7475L6.16899 10.7471C6.41624 7.97431 7.62142 5.85937 9.58303 4.79742" fill="#E94E4E"/>
<path fill-rule="evenodd" clip-rule="evenodd" d="M12.7389 4.3538C12.2428 4.28542 11.7646 4.25133 11.2869 4.25133C9.29584 4.25133 7.6278 4.93074 6.46854 6.22434C4.83798 8.05693 4.39666 10.9758 5.29172 14.2982C6.16874 17.5225 8.17511 20.6387 10.7101 23.0616C13.246 25.4855 16.2959 27.2014 19.2487 27.6465C21.8821 28.0399 24.0914 27.3702 25.5005 25.7935C27.1313 23.9609 27.5726 21.0419 26.6774 17.7191V17.719C25.8091 14.4861 23.8071 11.3656 21.2743 8.94057C18.7409 6.51494 15.6914 4.79915 12.7389 4.3538ZM6.13544 5.88822C7.66716 4.15838 10.0516 3.47154 12.8107 3.87834L12.8112 3.8784C15.8784 4.33809 19.0138 6.11084 21.6039 8.585C24.1951 11.0601 26.2555 14.2511 27.162 17.569C28.094 20.9806 27.6478 24.0989 25.8865 26.0766C24.6436 27.4994 22.8304 28.2109 20.7171 28.2109C20.2214 28.2109 19.7241 28.1755 19.2082 28.0866C16.1416 27.6265 13.0071 25.854 10.4175 23.3804C7.82641 20.9052 5.76586 17.7142 4.85944 14.3964L4.92429 14.3787L4.85943 14.3964C3.92734 10.9844 4.37376 7.86589 6.13544 5.88822Z" fill="#E94E4E"/>
<path fill-rule="evenodd" clip-rule="evenodd" d="M23.5476 27.3944C25.9221 26.7668 27.585 25.3325 28.3924 23.264C29.4717 20.4639 28.8077 16.8328 26.4993 13.301V13.3009C22.9672 7.89052 16.5248 4.24801 11.1109 4.24801C10.1876 4.24801 9.2844 4.35062 8.43502 4.57143C6.06055 5.19912 4.39762 6.63324 3.59029 8.70176C2.51097 11.5019 3.17495 15.1331 5.48335 18.6648L5.48339 18.6649C7.55652 21.8393 10.6262 24.4061 13.9074 25.9865C17.1914 27.5683 20.6642 28.1514 23.5476 27.3944ZM26.9534 13.027C24.8161 9.76367 21.6614 7.12811 18.292 5.50482C14.9252 3.88286 11.321 3.26097 8.28847 4.06138L8.28775 4.06157C5.75748 4.73872 3.9399 6.27923 3.07675 8.52713L3.07654 8.52767C1.92976 11.5381 2.65692 15.3534 5.02926 18.9736C8.66545 24.5248 15.2721 28.2771 20.8891 28.2771C21.8618 28.2771 22.8029 28.171 23.6934 27.9394L23.6949 27.939C26.2252 27.2619 28.0428 25.7214 28.9059 23.4735L28.9061 23.4729C30.0529 20.4625 29.3258 16.6473 26.9534 13.027Z" fill="#E94E4E"/>
<path fill-rule="evenodd" clip-rule="evenodd" d="M27.3808 25.3689C27.3894 25.3615 27.3979 25.3541 27.4064 25.3467C27.4148 25.3395 27.4237 25.3317 27.4321 25.3244C29.3238 23.6715 30.2946 21.4371 30.2609 18.8746C30.2101 15.2597 28.1708 11.4957 24.6101 8.55417C21.0177 5.58051 16.5154 4.03546 12.434 4.03546C9.39892 4.03546 6.60951 4.89296 4.59562 6.65308C2.68595 8.30935 1.68944 10.5361 1.72325 13.1084C1.77421 16.7231 3.81349 20.4871 7.37408 23.4286C10.528 26.0326 14.3605 27.5442 17.9968 27.8854C21.6227 28.2255 25.029 27.401 27.3808 25.3689ZM1.11781 13.1145C1.08221 10.3635 2.13883 7.96138 4.19634 6.17216C6.70633 3.99256 10.3001 3.13626 14.058 3.48652C17.8185 3.83701 21.7677 5.39651 25.0166 8.08207C28.6758 11.108 30.8479 15.0347 30.8838 18.8681L1.11781 13.1145ZM1.11781 13.1145C1.15365 16.948 3.3258 20.8747 6.98491 23.9007C10.6997 26.9642 15.3494 28.5691 19.5676 28.5691C22.7264 28.5691 25.6785 27.6694 27.8055 25.8105C29.8629 24.0212 30.9195 21.6191 30.8838 18.8681" fill="#E94E4E"/>
<path fill-rule="evenodd" clip-rule="evenodd" d="M21.0212 4.16439C18.9163 3.36004 16.7446 2.96716 14.661 2.96716C8.98007 2.96716 3.87651 5.80588 1.88318 10.5361L1.88289 10.5368C0.700031 13.3251 0.730848 16.4904 2.00423 19.4618L2.00471 19.4629C3.56869 23.152 6.84034 26.193 11.0157 27.8016L11.0162 27.8018C18.8529 30.8373 27.417 27.9155 30.1532 21.4296L30.1534 21.429C31.3363 18.6406 31.3055 15.4754 30.032 12.504L30.0317 12.5029C28.4677 8.81393 25.1962 5.77307 21.0212 4.16439ZM1.18425 10.2411C4.12004 3.31293 13.1627 0.317717 21.2814 3.45948L21.2817 3.45956C25.6139 5.13948 29.0583 8.32752 30.6957 12.2077C32.0313 15.3603 32.0699 18.7361 30.8177 21.7235C28.6876 26.8074 23.2644 29.7628 17.3578 29.7628C15.179 29.7628 12.9136 29.3554 10.72 28.5063H10.7199C6.38767 26.8263 2.94326 23.6383 1.30586 19.7581C-0.0298093 16.6055 -0.0684061 13.2296 1.18377 10.2422L1.18425 10.2411Z" fill="#E94E4E"/>
<path fill-rule="evenodd" clip-rule="evenodd" d="M0 16C0 7.18079 7.17923 0 16 0C24.8208 0 32 7.18079 32 16C32 24.819 24.8384 32 16 32C7.17923 32 0 24.8193 0 16ZM16 0.871799C7.66549 0.871799 0.873413 7.66304 0.873413 16C0.873413 24.337 7.66549 31.1282 16 31.1282C24.3345 31.1282 31.1266 24.337 31.1266 16C31.1266 7.66304 24.3345 0.871799 16 0.871799Z" fill="#E94E4E"/>
<defs>
<radialGradient id="paint0_radial_911_220" cx="0" cy="0" r="1" gradientUnits="userSpaceOnUse" gradientTransform="translate(15.9833 15.9726) rotate(67.2724) scale(10.0664 12.2021)">
<stop offset="0.341809" stop-color="white"/>
<stop offset="1" stop-color="#FF4848"/>
</radialGradient>
</defs>
</svg>
