<svg width="32" height="32" viewBox="0 0 32 32" fill="none" xmlns="http://www.w3.org/2000/svg">
<circle cx="16" cy="16" r="16" fill="#333333"/>
<g clip-path="url(#clip0_602_36)">
<path d="M23.7775 7H26.9572L20.34 13.5519C17.9436 15.9233 14.0584 15.9233 11.6603 13.5519L5.04053 7H8.22279L13.2501 11.9771C13.9826 12.699 14.9698 13.1037 15.9982 13.1037C17.0266 13.1037 18.0138 12.699 18.7463 11.9771L23.7775 7Z" fill="white"/>
<path d="M8.18184 25.2188H5L11.6602 18.6265C14.0565 16.255 17.9418 16.255 20.3398 18.6265L27 25.2188H23.8203L18.75 20.2013C18.0175 19.4794 17.0304 19.0747 16.0019 19.0747C14.9735 19.0747 13.9863 19.4794 13.2539 20.2013L8.18184 25.2188Z" fill="white"/>
</g>
<defs>
<clipPath id="clip0_602_36">
<rect width="22" height="18.2188" fill="white" transform="translate(5 7)"/>
</clipPath>
</defs>
</svg>
