<svg width="32" height="32" viewBox="0 0 32 32" fill="none" xmlns="http://www.w3.org/2000/svg">
<circle cx="16" cy="16" r="16" fill="#F3F3F3"/>
<g clip-path="url(#clip0_703_211)">
<path d="M9.58337 7.10833L26.6334 18.75L22.4167 24.9833L5.3667 13.25L9.58337 7.10833Z" fill="url(#paint0_linear_703_211)"/>
<path d="M26.6332 18.75C25.1665 20.8583 20.2165 20.0333 15.5415 16.7333C10.7748 13.525 8.20818 9.21667 9.58318 7.10833C11.0498 5 15.9998 5.825 20.6749 9.125C25.4415 12.2417 28.0082 16.6417 26.6332 18.75Z" fill="url(#paint1_linear_703_211)"/>
<path d="M22.4166 24.8917C20.95 27 16 26.175 11.325 22.875C6.64996 19.575 3.99162 15.3583 5.45829 13.1583C6.92496 11.05 11.875 11.875 16.55 15.175C21.225 18.475 23.7916 22.7833 22.4166 24.8917Z" fill="url(#paint2_linear_703_211)"/>
<path d="M26.6333 18.75L22.4166 24.9833C20.95 27.0917 16 26.175 11.325 22.9667C10.4083 22.325 9.5833 21.6833 8.7583 20.95C9.39997 20.8583 10.225 20.4917 11.05 19.575C12.5166 18.0167 13.25 17.65 13.8916 17.7417C14.5333 17.7417 15.2666 18.3833 16.4583 19.9417C17.65 21.5 19.3 21.9583 20.3083 21.1333C20.4 21.0417 20.4916 21.0417 20.5833 20.95C21.4083 20.3083 21.6833 20.0333 23.2416 17.1C23.6083 16.3667 24.8916 15.175 26.6333 15.725C27.0916 16.9167 27.0916 17.925 26.6333 18.75Z" fill="#0E0F23"/>
<path fill-rule="evenodd" clip-rule="evenodd" d="M25.9915 18.3833C24.7082 20.2167 20.2165 19.3 15.9082 16.275C11.5082 13.25 8.94155 9.4 10.2249 7.56667C11.5082 5.73333 15.9999 6.65 20.3082 9.675C24.6166 12.7 27.1832 16.55 25.9915 18.3833ZM21.9582 15.6333C21.3166 16.55 19.1166 16.0917 16.9166 14.625C14.8082 13.1583 13.5249 11.2333 14.1666 10.3167C14.8082 9.4 17.0082 9.85833 19.2082 11.325C21.3166 12.7917 22.5999 14.7167 21.9582 15.6333Z" fill="white"/>
<path d="M9.21652 9.21667C9.21652 9.125 9.12485 9.03333 9.03319 9.125C8.94152 9.21667 8.84985 9.21667 8.84985 9.30833C8.94152 9.58333 9.03319 9.76667 9.03319 9.95C9.03319 10.0417 9.12485 10.1333 9.21652 10.0417C9.30819 10.0417 9.39985 9.95 9.30819 9.85833C9.30819 9.675 9.30819 9.49167 9.21652 9.21667Z" fill="white"/>
<path d="M9.6749 10.6833C9.6749 10.5917 9.58324 10.5 9.49157 10.5917C9.3999 10.6833 9.3999 10.6833 9.3999 10.775C10.4082 13.0667 12.5166 15.5417 15.2666 17.375C15.3582 17.4667 15.4499 17.375 15.5416 17.375C15.6332 17.2833 15.5416 17.1917 15.5416 17.1C12.6999 15.2667 10.6832 12.8833 9.6749 10.6833Z" fill="white"/>
<path d="M20.7666 19.6667C20.6749 19.6667 20.5833 19.6667 20.5833 19.7583C20.5833 19.85 20.5833 19.9417 20.6749 19.9417C20.9499 20.0333 21.3166 20.125 21.5916 20.2167C21.6833 20.2167 21.7749 20.2167 21.7749 20.125C21.7749 20.0333 21.7749 19.9417 21.6833 19.9417C21.4083 19.85 21.0416 19.7583 20.7666 19.6667Z" fill="white"/>
<path d="M22.4167 20.0333C22.3251 20.0333 22.2334 20.125 22.2334 20.2167C22.2334 20.3083 22.3251 20.4 22.4167 20.4C23.1501 20.4917 23.9751 20.5833 24.6167 20.4917C24.7084 20.4917 24.8001 20.4 24.8001 20.3083C24.8001 20.2167 24.7084 20.125 24.6167 20.125C23.8834 20.2167 23.1501 20.125 22.4167 20.0333Z" fill="white"/>
</g>
<defs>
<linearGradient id="paint0_linear_703_211" x1="12.9239" y1="5.45311" x2="16.3051" y2="17.0638" gradientUnits="userSpaceOnUse">
<stop stop-color="#03B8FF"/>
<stop offset="1" stop-color="#FA52A0"/>
</linearGradient>
<linearGradient id="paint1_linear_703_211" x1="15.7082" y1="4.64213" x2="19.0895" y2="16.2529" gradientUnits="userSpaceOnUse">
<stop stop-color="#03B8FF"/>
<stop offset="1" stop-color="#FA52A0"/>
</linearGradient>
<linearGradient id="paint2_linear_703_211" x1="10.148" y1="6.26142" x2="13.5293" y2="17.8722" gradientUnits="userSpaceOnUse">
<stop stop-color="#03B8FF"/>
<stop offset="1" stop-color="#FA52A0"/>
</linearGradient>
<clipPath id="clip0_703_211">
<rect width="22" height="22" fill="white" transform="translate(5 5)"/>
</clipPath>
</defs>
</svg>
