<svg width="32" height="32" viewBox="0 0 32 32" fill="none" xmlns="http://www.w3.org/2000/svg">
<circle cx="16" cy="16" r="16" fill="#E4E4E4"/>
<path d="M22.6104 7.20816C25.8986 9.68086 26.565 14.3413 24.1011 17.6207C21.6371 20.9001 16.9723 21.5489 13.6842 19.0762C11.9831 17.8004 11.6411 15.3847 12.9213 13.6837C13.3028 13.1751 13.7894 12.7893 14.3243 12.5306C10.6547 14.1966 8.96237 18.4888 10.5451 22.2065C12.1497 25.9814 16.5208 27.7307 20.3087 26.1216C22.0274 25.3895 23.5881 24.2101 24.7938 22.6099C28.4415 17.7522 27.4681 10.8602 22.6104 7.20816Z" fill="url(#paint0_linear_712_303)"/>
<path d="M22.6105 7.2083C21.1198 6.08156 19.3179 5.32308 17.3275 5.08196C16.6742 5.00304 16.0298 4.98111 15.3984 5.01619C16.6567 5.43708 17.9588 6.03333 18.9584 7.03293C22.1984 10.2729 21.9353 16.6125 18.2745 19.1027C17.5116 19.6639 16.5427 19.9444 15.5344 19.8217C14.903 19.7428 14.3243 19.5192 13.8333 19.1816C17.1127 21.5272 21.6722 20.8476 24.1011 17.6208C26.5694 14.3414 25.8987 9.681 22.6105 7.2083Z" fill="url(#paint1_linear_712_303)"/>
<path d="M10.5448 22.2065C8.99716 18.5677 10.5842 14.3719 14.1004 12.6358C15.4902 11.8072 17.4543 11.8247 19.2957 12.6796C18.3004 10.299 16.0952 8.50584 13.3507 8.17264C9.28214 7.67723 5.57747 10.584 5.08206 14.67C4.85408 16.5246 5.09521 18.4624 5.87998 20.3082C8.26061 25.8981 14.7186 28.4978 20.3084 26.1172C16.5248 27.7306 12.1538 25.9769 10.5448 22.2065Z" fill="url(#paint2_linear_712_303)"/>
<defs>
<linearGradient id="paint0_linear_712_303" x1="25.9305" y1="15.0807" x2="7.16287" y2="19.7053" gradientUnits="userSpaceOnUse">
<stop stop-color="#FE273B"/>
<stop offset="0.502869" stop-color="#AD1A28"/>
<stop offset="1" stop-color="#420D12"/>
</linearGradient>
<linearGradient id="paint1_linear_712_303" x1="11.5199" y1="16.6426" x2="24.1129" y2="8.96736" gradientUnits="userSpaceOnUse">
<stop stop-color="#FE273B"/>
<stop offset="1" stop-color="#520E15"/>
</linearGradient>
<linearGradient id="paint2_linear_712_303" x1="21.315" y1="27.4973" x2="7.07974" y2="9.70327" gradientUnits="userSpaceOnUse">
<stop stop-color="#FE273B"/>
<stop offset="0.645833" stop-color="#FE273B"/>
<stop offset="1" stop-color="#540F15"/>
</linearGradient>
</defs>
</svg>
