<svg width="32" height="32" viewBox="0 0 32 32" fill="none" xmlns="http://www.w3.org/2000/svg">
<circle cx="16" cy="16" r="16" fill="#F3F3F3"/>
<g clip-path="url(#clip0_703_173)">
<path d="M12.4924 8.00619C12.254 7.97214 12.2426 7.96078 12.3562 7.94943C12.5718 7.91538 13.0713 7.96078 13.4232 8.04025C14.2406 8.23323 14.9784 8.73271 15.7617 9.60681L15.9661 9.8452L16.2612 9.79979C17.5213 9.59546 18.8154 9.75438 19.8938 10.2539C20.189 10.3901 20.6544 10.6625 20.7112 10.7306C20.7339 10.7534 20.7679 10.9009 20.7906 11.0485C20.8701 11.582 20.836 11.9794 20.6658 12.2859C20.5749 12.4561 20.5749 12.5015 20.6317 12.6491C20.6771 12.7626 20.8133 12.8421 20.9382 12.8421C21.2106 12.8421 21.4944 12.4107 21.6307 11.8091L21.6874 11.5707L21.7896 11.6842C22.3685 12.3313 22.8226 13.2281 22.8907 13.8638L22.9134 14.0341L22.8113 13.8865C22.641 13.6254 22.4821 13.4551 22.2664 13.3075C21.8804 13.0464 21.4717 12.967 20.3933 12.9102C19.417 12.8535 18.8608 12.774 18.3159 12.5924C17.3851 12.2859 16.9083 11.8885 15.8071 10.4241C15.319 9.77709 15.0125 9.42518 14.706 9.13003C14.0362 8.48297 13.3665 8.14241 12.4924 8.00619Z" fill="#FF007A"/>
<path d="M20.9494 9.44788C20.9721 9.01651 21.0289 8.73271 21.1538 8.47162C21.1992 8.36945 21.2446 8.27864 21.2559 8.27864C21.2673 8.27864 21.2446 8.3581 21.2105 8.44892C21.1197 8.69866 21.1084 9.05057 21.1651 9.44788C21.2446 9.95872 21.2786 10.0268 21.8235 10.5831C22.0733 10.8442 22.3684 11.1734 22.4819 11.3096L22.6749 11.5593L22.4819 11.3777C22.2435 11.1507 21.6987 10.7193 21.5738 10.6625C21.4943 10.6171 21.483 10.6171 21.4262 10.6739C21.3808 10.7193 21.3694 10.7874 21.3694 11.1166C21.3581 11.6275 21.29 11.9453 21.1197 12.2745C21.0289 12.4448 21.0175 12.4107 21.097 12.2178C21.1538 12.0702 21.1651 12.0021 21.1651 11.5139C21.1651 10.5263 21.0516 10.2879 20.3591 9.89061C20.1888 9.78844 19.8937 9.64087 19.7234 9.5614C19.5418 9.48194 19.4056 9.41383 19.4169 9.41383C19.4396 9.39112 20.1094 9.58411 20.3705 9.69763C20.7678 9.85655 20.8359 9.8679 20.8813 9.85655C20.9154 9.8225 20.9381 9.73168 20.9494 9.44788Z" fill="#FF007A"/>
<path d="M12.9578 11.1393C12.481 10.4809 12.1745 9.45924 12.2426 8.69866L12.2653 8.46027L12.3788 8.48297C12.5832 8.51703 12.9351 8.65325 13.1053 8.75542C13.5594 9.02786 13.7638 9.40248 13.9567 10.3333C14.0135 10.6058 14.093 10.9236 14.127 11.0258C14.1838 11.1961 14.3995 11.5934 14.5811 11.8431C14.706 12.0248 14.6265 12.1156 14.3427 12.0929C13.9113 12.0475 13.3324 11.6502 12.9578 11.1393Z" fill="#FF007A"/>
<path d="M20.3704 16.0774C18.1228 15.1692 17.3281 14.386 17.3281 13.0578C17.3281 12.8648 17.3395 12.7059 17.3395 12.7059C17.3508 12.7059 17.4303 12.774 17.5325 12.8535C17.9865 13.2167 18.4974 13.3756 19.9164 13.58C20.745 13.7049 21.2218 13.7957 21.6532 13.9432C23.0268 14.3973 23.8782 15.3282 24.0825 16.5882C24.1393 16.9515 24.1052 17.644 24.0144 18.0072C23.9349 18.291 23.7079 18.8132 23.6511 18.8246C23.6398 18.8246 23.6171 18.7678 23.6171 18.677C23.5944 18.2002 23.356 17.7461 22.9587 17.3942C22.4819 16.9856 21.8689 16.6791 20.3704 16.0774Z" fill="#FF007A"/>
<path d="M18.7812 16.452C18.7585 16.2817 18.7017 16.066 18.6677 15.9752L18.6109 15.805L18.7131 15.9298C18.8606 16.1001 18.9742 16.3044 19.0763 16.5882C19.1558 16.8039 19.1558 16.872 19.1558 17.2239C19.1558 17.5645 19.1444 17.644 19.0763 17.8369C18.9628 18.1434 18.8266 18.3591 18.5995 18.5975C18.1909 19.0175 17.6573 19.2446 16.8968 19.3468C16.7605 19.3581 16.3746 19.3922 16.034 19.4149C15.1826 19.4603 14.615 19.5511 14.1042 19.7327C14.0361 19.7554 13.968 19.7781 13.9566 19.7668C13.9339 19.7441 14.2858 19.5397 14.5696 19.4035C14.9669 19.2105 15.3756 19.1084 16.2724 18.9494C16.7151 18.8813 17.1692 18.7905 17.2827 18.7451C18.4066 18.3932 18.9628 17.5191 18.7812 16.452Z" fill="#FF007A"/>
<path d="M19.8141 18.2797C19.519 17.6326 19.4509 17.0196 19.6098 16.4407C19.6325 16.3839 19.6552 16.3271 19.6779 16.3271C19.7006 16.3271 19.7687 16.3612 19.8368 16.4066C19.9731 16.4974 20.2569 16.6563 20.9834 17.0537C21.9029 17.5531 22.4251 17.9391 22.7883 18.3818C23.1062 18.7678 23.2992 19.2105 23.39 19.7554C23.4468 20.0619 23.4127 20.7998 23.3332 21.1063C23.0835 22.0712 22.5159 22.8431 21.6872 23.2859C21.5623 23.354 21.4602 23.3994 21.4488 23.3994C21.4375 23.3994 21.4829 23.2859 21.551 23.1496C21.8234 22.5707 21.8575 22.0144 21.6532 21.3901C21.5283 21.0041 21.2672 20.5387 20.745 19.7554C20.1206 18.8473 19.9731 18.6089 19.8141 18.2797Z" fill="#FF007A"/>
<path d="M11.357 21.7534C12.1971 21.0495 13.2301 20.55 14.1837 20.3911C14.5923 20.323 15.2734 20.3457 15.6481 20.4479C16.2497 20.6068 16.7946 20.9474 17.0784 21.3674C17.3508 21.7761 17.4757 22.128 17.6006 22.9112C17.646 23.2177 17.7028 23.5356 17.7141 23.6037C17.8049 24.0124 17.9866 24.3302 18.2136 24.5005C18.5655 24.7616 19.1785 24.773 19.7802 24.5459C19.8823 24.5119 19.9731 24.4778 19.9731 24.4892C19.9958 24.5119 19.6893 24.7162 19.485 24.8184C19.2012 24.9659 18.9742 25.0113 18.6677 25.0113C18.1228 25.0113 17.6573 24.7275 17.2827 24.16C17.2033 24.0464 17.0443 23.7172 16.9081 23.4107C16.5108 22.4912 16.3065 22.2188 15.841 21.9123C15.4324 21.6512 14.9102 21.5944 14.5129 21.7874C13.9907 22.0371 13.8545 22.7069 14.2177 23.1156C14.3653 23.2859 14.6377 23.4221 14.8648 23.4561C15.2848 23.5129 15.6481 23.1837 15.6481 22.7637C15.6481 22.4912 15.5459 22.3323 15.2734 22.2074C14.9102 22.0485 14.5129 22.2301 14.5242 22.582C14.5242 22.7296 14.5923 22.8204 14.7399 22.8885C14.8307 22.9339 14.8307 22.9339 14.7626 22.9226C14.4334 22.8545 14.3539 22.4458 14.615 22.1847C14.9329 21.8669 15.6027 22.0031 15.8297 22.4458C15.9205 22.6274 15.9319 22.9907 15.8524 23.2177C15.6594 23.7172 15.1145 23.9783 14.5583 23.8307C14.1837 23.7286 14.0247 23.6264 13.5707 23.161C12.776 22.3437 12.4695 22.1847 11.3343 22.0144L11.1187 21.9804L11.357 21.7534Z" fill="#FF007A"/>
<path fill-rule="evenodd" clip-rule="evenodd" d="M5.38598 3.48813C8.03098 6.70072 12.1063 11.6956 12.3106 11.968C12.4809 12.195 12.4128 12.4107 12.129 12.5697C11.9701 12.6605 11.6409 12.7513 11.482 12.7513C11.3003 12.7513 11.0846 12.6605 10.9371 12.5129C10.8349 12.4107 10.3922 11.7637 9.39321 10.2085C8.63263 9.01651 7.98557 8.0289 7.97422 8.01754C7.92881 7.99484 7.92881 7.99484 9.31374 10.4696C10.1878 12.0248 10.4716 12.581 10.4716 12.6491C10.4716 12.7967 10.4262 12.8762 10.2446 13.0805C9.9381 13.4211 9.80187 13.807 9.69971 14.613C9.58619 15.5098 9.27969 16.1455 8.40559 17.2239C7.89475 17.8596 7.81529 17.9732 7.69042 18.2343C7.53149 18.5521 7.48608 18.7337 7.46338 19.1424C7.44068 19.5738 7.48608 19.8462 7.61096 20.2549C7.72447 20.6182 7.84935 20.8566 8.15585 21.322C8.41694 21.7306 8.57587 22.0372 8.57587 22.1507C8.57587 22.2415 8.59857 22.2415 9.00724 22.1507C9.9835 21.9236 10.7895 21.5377 11.2322 21.0609C11.5047 20.7657 11.5728 20.6068 11.5728 20.1981C11.5728 19.937 11.5614 19.8803 11.4933 19.7214C11.3798 19.4716 11.1641 19.2673 10.6987 18.9494C10.0857 18.5294 9.82458 18.1889 9.75647 17.7348C9.69971 17.3488 9.76782 17.0877 10.1084 16.3725C10.4603 15.6347 10.5511 15.3282 10.6079 14.5789C10.6419 14.1022 10.6987 13.9092 10.8349 13.7616C10.9825 13.6027 11.1073 13.5459 11.4593 13.5005C12.0382 13.4211 12.4128 13.2735 12.708 12.9897C12.9691 12.7513 13.0826 12.5129 13.0939 12.161L13.1053 11.8999L12.9577 11.741C12.4242 11.128 5.03407 3 5.00002 3C4.98866 3 5.1703 3.21569 5.38598 3.48813ZM8.87102 19.6305C8.99589 19.4149 8.92778 19.1424 8.72344 19.0062C8.53046 18.8813 8.23531 18.9381 8.23531 19.1084C8.23531 19.1538 8.25801 19.1992 8.32613 19.2219C8.42829 19.2786 8.43964 19.3354 8.36018 19.4603C8.28072 19.5851 8.28072 19.6987 8.38289 19.7781C8.54181 19.903 8.7575 19.8349 8.87102 19.6305Z" fill="#FF007A"/>
<path fill-rule="evenodd" clip-rule="evenodd" d="M13.4684 13.6594C13.196 13.7389 12.9349 14.0341 12.8554 14.3292C12.81 14.5108 12.8327 14.84 12.9122 14.9422C13.037 15.1011 13.1506 15.1465 13.4684 15.1465C14.0928 15.1465 14.6263 14.8741 14.6831 14.5449C14.7398 14.2724 14.5014 13.8978 14.1722 13.7276C14.002 13.6367 13.6501 13.6027 13.4684 13.6594ZM14.1949 14.227C14.2858 14.0908 14.2517 13.9432 14.0814 13.8411C13.7749 13.6481 13.3095 13.807 13.3095 14.1022C13.3095 14.2497 13.5479 14.4087 13.7749 14.4087C13.9225 14.4087 14.1268 14.3179 14.1949 14.227Z" fill="#FF007A"/>
</g>
<defs>
<clipPath id="clip0_703_173">
<rect width="19.1053" height="22" fill="white" transform="translate(5 3)"/>
</clipPath>
</defs>
</svg>
