<svg xmlns="http://www.w3.org/2000/svg" width="24" height="24" viewBox="0 0 24 24" fill="none">
    <circle cx="12" cy="12" r="12" fill="url(#paint0_linear_2160_28081)"/>
    <path fill-rule="evenodd" clip-rule="evenodd" d="M11.8589 5.79995C15.2165 5.79995 17.9383 8.57578 17.9383 12C17.9383 12.6011 17.8544 13.1823 17.6979 13.732C17.5361 14.3003 17.7174 14.9404 18.22 15.2363L18.7235 15.5328C18.9879 15.6884 19.0785 16.0331 18.9258 16.3027C18.7732 16.5723 18.4352 16.6647 18.1709 16.509L17.6112 16.1795C17.1238 15.8925 16.5097 16.0339 16.1072 16.435C15.0112 17.527 13.5121 18.2 11.8589 18.2C8.50132 18.2 5.77946 15.4241 5.77946 12C5.77946 11.4705 5.84454 10.9566 5.96697 10.466C6.10593 9.9092 5.9193 9.29531 5.43143 9.00806L4.87641 8.68126C4.61207 8.52562 4.5215 8.1809 4.67411 7.91132C4.82673 7.64173 5.16474 7.54937 5.42908 7.70501L5.93225 8.00128C6.43419 8.29682 7.06778 8.13781 7.46877 7.71103C8.57536 6.53327 10.1332 5.79995 11.8589 5.79995ZM9.02933 9.82484C8.46591 9.4931 8.30005 8.72666 8.7971 8.29859C9.62377 7.58665 10.6922 7.15751 11.8589 7.15751C14.4813 7.15751 16.6072 9.32555 16.6072 12C16.6072 12.292 16.5818 12.578 16.5332 12.8558C16.4191 13.5083 15.6859 13.7442 15.123 13.4128L9.02933 9.82484ZM7.14052 11.4536C7.21558 10.7719 7.97184 10.5038 8.55437 10.8468L14.4883 14.3407C15.0712 14.684 15.2217 15.4867 14.6806 15.895C13.8917 16.4903 12.9156 16.8424 11.8589 16.8424C9.2365 16.8424 7.11063 14.6744 7.11063 12C7.11063 11.8152 7.12077 11.6329 7.14052 11.4536Z" fill="white"/>
    <defs>
        <linearGradient id="paint0_linear_2160_28081" x1="12" y1="24" x2="12" y2="0" gradientUnits="userSpaceOnUse">
            <stop stop-color="#4A56DF"/>
            <stop offset="0.526042" stop-color="#3C83E3"/>
            <stop offset="1" stop-color="#399FA2"/>
        </linearGradient>
    </defs>
</svg>
