<svg width="32" height="32" viewBox="0 0 32 32" fill="none" xmlns="http://www.w3.org/2000/svg">
<path d="M16 32C24.8667 32 32 24.8667 32 16C32 7.13328 24.8667 0 16 0C7.13328 0 0 7.13328 0 16C0 24.8667 7.13328 32 16 32Z" fill="#2775CA"/>
<path d="M20.4 18.5333C20.4 16.2 19 15.4 16.2001 15.0667C14.2001 14.8 13.8001 14.2667 13.8001 13.3333C13.8001 12.3998 14.4668 11.8 15.8001 11.8C17.0001 11.8 17.6668 12.2 18 13.2C18.0668 13.4 18.2668 13.5333 18.4668 13.5333H19.5333C19.8 13.5333 20 13.3333 20 13.0667V13C19.7333 11.5333 18.5333 10.4 17.0001 10.2667V8.66671C17.0001 8.39999 16.8001 8.19999 16.4668 8.13327H15.4668C15.2001 8.13327 15.0001 8.33327 14.9333 8.66671V10.2C12.9333 10.4667 11.6668 11.8 11.6668 13.4667C11.6668 15.6667 13.0001 16.5333 15.8001 16.8667C17.6668 17.2 18.2668 17.6 18.2668 18.6667C18.2668 19.7334 17.3333 20.4667 16.0668 20.4667C14.3333 20.4667 13.7333 19.7333 13.5333 18.7333C13.4668 18.4667 13.2668 18.3333 13.0668 18.3333H11.9333C11.6668 18.3333 11.4668 18.5333 11.4668 18.8V18.8667C11.7333 20.5333 12.8001 21.7333 15.0001 22.0667V23.6667C15.0001 23.9333 15.2001 24.1333 15.5333 24.2H16.5333C16.8001 24.2 17.0001 24 17.0668 23.6667V22.0667C19.0668 21.7333 20.4 20.3333 20.4 18.5333Z" fill="white"/>
<path d="M12.5999 25.5333C7.39994 23.6667 4.73322 17.8667 6.66666 12.7333C7.66666 9.93328 9.86666 7.8 12.5999 6.8C12.8667 6.66672 12.9999 6.46672 12.9999 6.13328V5.2C12.9999 4.93328 12.8667 4.73328 12.5999 4.66672C12.5332 4.66672 12.3999 4.66672 12.3332 4.73328C5.99994 6.73328 2.53322 13.4667 4.53322 19.8C5.73322 23.5333 8.59994 26.4 12.3332 27.6C12.5999 27.7333 12.8667 27.6 12.9332 27.3333C12.9999 27.2667 12.9999 27.2 12.9999 27.0667V26.1333C12.9999 25.9333 12.7999 25.6667 12.5999 25.5333ZM19.6667 4.73328C19.3999 4.6 19.1332 4.73328 19.0667 5C18.9999 5.06672 18.9999 5.13328 18.9999 5.26672V6.2C18.9999 6.46672 19.1999 6.73328 19.3999 6.86672C24.5999 8.73328 27.2667 14.5333 25.3332 19.6667C24.3332 22.4667 22.1332 24.6 19.3999 25.6C19.1332 25.7333 18.9999 25.9333 18.9999 26.2667V27.2C18.9999 27.4667 19.1332 27.6667 19.3999 27.7333C19.4667 27.7333 19.5999 27.7333 19.6667 27.6667C25.9999 25.6667 29.4667 18.9333 27.4667 12.6C26.2667 8.8 23.3332 5.93328 19.6667 4.73328Z" fill="white"/>
</svg>
