<svg width="32" height="32" viewBox="0 0 32 32" fill="none" xmlns="http://www.w3.org/2000/svg">
<path d="M16 32C24.8366 32 32 24.8366 32 16C32 7.16344 24.8366 0 16 0C7.16344 0 0 7.16344 0 16C0 24.8366 7.16344 32 16 32Z" fill="#ECB300"/>
<path d="M15.3772 21.2421V23.2004H8.74071V21.2421H15.3772ZM9.4932 10V23.2004H7V10H9.4932Z" fill="white"/>
<path d="M22.1224 18.3862H18.7226V16.4279H22.1224C22.6785 16.4279 23.1287 16.3373 23.4733 16.1559C23.8238 15.9686 24.0807 15.7147 24.2439 15.3944C24.4071 15.068 24.4887 14.6963 24.4887 14.2792C24.4887 13.8743 24.4071 13.4965 24.2439 13.146C24.0807 12.7954 23.8238 12.5113 23.4733 12.2937C23.1287 12.0762 22.6785 11.9674 22.1224 11.9674H19.5385V23.2004H17.0453V10H22.1224C23.1499 10 24.0263 10.1843 24.7516 10.553C25.4829 10.9157 26.039 11.4204 26.4198 12.0671C26.8066 12.7078 27 13.4391 27 14.2611C27 15.1133 26.8066 15.8477 26.4198 16.4642C26.039 17.0807 25.4829 17.5552 24.7516 17.8876C24.0263 18.22 23.1499 18.3862 22.1224 18.3862Z" fill="white"/>
<path d="M15.3772 21.2421V23.2004H8.74071V21.2421H15.3772ZM9.4932 10V23.2004H7V10H9.4932Z" fill="white"/>
<path d="M22.1224 18.3862H18.7226V16.4279H22.1224C22.6785 16.4279 23.1287 16.3373 23.4733 16.1559C23.8238 15.9686 24.0807 15.7147 24.2439 15.3944C24.4071 15.068 24.4887 14.6963 24.4887 14.2792C24.4887 13.8743 24.4071 13.4965 24.2439 13.146C24.0807 12.7954 23.8238 12.5113 23.4733 12.2937C23.1287 12.0762 22.6785 11.9674 22.1224 11.9674H19.5385V23.2004H17.0453V10H22.1224C23.1499 10 24.0263 10.1843 24.7516 10.553C25.4829 10.9157 26.039 11.4204 26.4198 12.0671C26.8066 12.7078 27 13.4391 27 14.2611C27 15.1133 26.8066 15.8477 26.4198 16.4642C26.039 17.0807 25.4829 17.5552 24.7516 17.8876C24.0263 18.22 23.1499 18.3862 22.1224 18.3862Z" fill="white"/>
</svg>
