<svg width="32" height="32" viewBox="0 0 32 32" fill="none" xmlns="http://www.w3.org/2000/svg">
<path d="M16 32C24.8366 32 32 24.8366 32 16C32 7.16344 24.8366 0 16 0C7.16344 0 0 7.16344 0 16C0 24.8366 7.16344 32 16 32Z" fill="white"/>
<path d="M26.3131 13.4007L27.9999 16.3151L19.1126 21.4339C19.1126 21.4339 13.6704 24.7154 9.75439 17.9506L12.5209 16.3568C12.5209 16.3568 14.3227 20.3221 17.4398 18.5213C20.5569 16.7205 26.3131 13.4007 26.3131 13.4007Z" fill="#04090A"/>
<path d="M5.68675 17.9303L4 15.0159L13.0704 9.79613C13.0704 9.79613 18.5144 6.51463 22.4251 13.276L19.6639 14.8663C19.6639 14.8663 17.8655 10.9079 14.7484 12.7018C11.6314 14.4957 5.68675 17.9303 5.68675 17.9303Z" fill="#04090A"/>
<path d="M16.1711 17.8681C16.6097 17.8684 17.0385 17.7391 17.4034 17.4965C17.7683 17.2539 18.053 16.9089 18.2214 16.5051C18.3899 16.1012 18.4346 15.6566 18.3498 15.2274C18.2651 14.7982 18.0548 14.4037 17.7455 14.0936C17.4361 13.7836 17.0416 13.572 16.6117 13.4854C16.1818 13.3989 15.7359 13.4414 15.3302 13.6075C14.9246 13.7737 14.5773 14.056 14.3324 14.4188C14.0875 14.7817 13.9559 15.2088 13.9541 15.6462C13.9527 15.9375 14.0091 16.2262 14.1199 16.4957C14.2307 16.7652 14.3938 17.0102 14.5998 17.2167C14.8058 17.4231 15.0506 17.587 15.3203 17.6988C15.59 17.8106 15.8791 17.8681 16.1711 17.8681Z" fill="#F1993F"/>
<path d="M23.8013 12.4083C24.0305 12.4083 24.2546 12.3404 24.4451 12.2133C24.6357 12.0862 24.7841 11.9056 24.8717 11.6943C24.9592 11.483 24.982 11.2505 24.937 11.0263C24.892 10.8021 24.7814 10.5962 24.619 10.4348C24.4567 10.2734 24.25 10.1636 24.0251 10.1194C23.8002 10.0752 23.5672 10.0986 23.3556 10.1866C23.1441 10.2746 22.9634 10.4232 22.8366 10.6136C22.7097 10.8041 22.6424 11.0278 22.6431 11.2564C22.644 11.5622 22.7664 11.8552 22.9835 12.0711C23.2006 12.287 23.4947 12.4083 23.8013 12.4083Z" fill="#04090A"/>
<path d="M8.30105 21.1959C8.53027 21.1959 8.75434 21.128 8.94488 21.0009C9.13543 20.8738 9.28388 20.6932 9.37144 20.4819C9.45899 20.2706 9.48173 20.0381 9.43675 19.8139C9.39178 19.5897 9.28112 19.3839 9.11879 19.2224C8.95646 19.061 8.74976 18.9512 8.52486 18.907C8.29996 18.8629 8.06697 18.8862 7.85539 18.9742C7.64382 19.0622 7.46317 19.2108 7.33632 19.4013C7.20948 19.5917 7.14214 19.8154 7.14283 20.0441C7.14375 20.3499 7.26619 20.6428 7.48329 20.8587C7.7004 21.0747 7.99447 21.1959 8.30105 21.1959Z" fill="#04090A"/>
</svg>
