<svg width="32" height="32" viewBox="0 0 32 32" fill="none" xmlns="http://www.w3.org/2000/svg">
<path d="M16 32C24.8366 32 32 24.8366 32 16C32 7.16344 24.8366 0 16 0C7.16344 0 0 7.16344 0 16C0 24.8366 7.16344 32 16 32Z" fill="#77B36E"/>
<path d="M22 18.895C22 14.6328 13.3488 14.9111 13.3488 12.3378C13.3488 11.0922 14.6608 10.4839 16.1826 10.4839C18.7417 10.4839 19.1974 11.9772 20.3565 11.9772C21.1773 11.9772 21.5725 11.5078 21.5725 10.9817C21.5725 9.75889 19.5314 8.83333 17.5741 8.51278V7.33278C17.5741 6.9793 17.4195 6.64031 17.1443 6.39036C16.8691 6.14042 16.4959 6 16.1067 6C15.7176 6 15.3443 6.14042 15.0692 6.39036C14.794 6.64031 14.6394 6.9793 14.6394 7.33278V8.55444C12.5053 8.99556 10.6698 10.34 10.6698 12.5317C10.6698 16.6256 19.3197 16.46 19.3197 19.3356C19.3197 20.3317 18.1325 21.3278 16.1826 21.3278C13.2583 21.3278 12.2839 19.53 11.0961 19.53C10.5175 19.53 10 19.9722 10 20.6389C10 21.6978 11.9542 22.9722 14.6412 23.3283L14.6394 23.3367V24.6683C14.6504 25.0153 14.8099 25.3447 15.084 25.5866C15.3581 25.8284 15.7252 25.9637 16.1073 25.9637C16.4895 25.9637 16.8566 25.8284 17.1307 25.5866C17.4048 25.3447 17.5643 25.0153 17.5753 24.6683V23.3367C17.5753 23.3211 17.5667 23.3089 17.5655 23.295C19.9834 22.885 22 21.4533 22 18.895Z" fill="white"/>
</svg>
